%TF.GenerationSoftware,KiCad,Pcbnew,9.0.8-9.0.8~ubuntu24.04.1*%
%TF.CreationDate,2026-03-24T20:26:18+02:00*%
%TF.ProjectId,micro,6d696372-6f2e-46b6-9963-61645f706362,rev?*%
%TF.SameCoordinates,Original*%
%TF.FileFunction,Drillmap*%
%TF.FilePolarity,Positive*%
%FSLAX45Y45*%
G04 Gerber Fmt 4.5, Leading zero omitted, Abs format (unit mm)*
G04 Created by KiCad (PCBNEW 9.0.8-9.0.8~ubuntu24.04.1) date 2026-03-24 20:26:18*
%MOMM*%
%LPD*%
G01*
G04 APERTURE LIST*
%ADD10C,0.200000*%
%ADD11C,0.120000*%
%ADD12C,0.125000*%
%ADD13C,0.350000*%
G04 APERTURE END LIST*
D10*
X10200000Y-3645000D02*
X20200000Y-3645000D01*
X20200000Y-13645000D01*
X10200000Y-13645000D01*
X10200000Y-3645000D01*
D11*
X14815000Y-4884000D02*
X14935000Y-5004000D01*
X14935000Y-4884000D02*
X14815000Y-5004000D01*
X15815000Y-11592000D02*
X15935000Y-11712000D01*
X15935000Y-11592000D02*
X15815000Y-11712000D01*
X17830000Y-10210000D02*
X17950000Y-10330000D01*
X17950000Y-10210000D02*
X17830000Y-10330000D01*
D12*
X15187500Y-3935000D02*
G75*
G02*
X15062500Y-3935000I-62500J0D01*
G01*
X15062500Y-3935000D02*
G75*
G02*
X15187500Y-3935000I62500J0D01*
G01*
D13*
X10906000Y-6352000D02*
X10906000Y-6702000D01*
X10731000Y-6527000D02*
X11081000Y-6527000D01*
X12620000Y-7865000D02*
X12620000Y-8215000D01*
X12445000Y-8040000D02*
X12795000Y-8040000D01*
D10*
X10450777Y-13966484D02*
X10450777Y-13766484D01*
X10450777Y-13766484D02*
X10498396Y-13766484D01*
X10498396Y-13766484D02*
X10526967Y-13776008D01*
X10526967Y-13776008D02*
X10546015Y-13795055D01*
X10546015Y-13795055D02*
X10555539Y-13814103D01*
X10555539Y-13814103D02*
X10565063Y-13852198D01*
X10565063Y-13852198D02*
X10565063Y-13880769D01*
X10565063Y-13880769D02*
X10555539Y-13918865D01*
X10555539Y-13918865D02*
X10546015Y-13937912D01*
X10546015Y-13937912D02*
X10526967Y-13956960D01*
X10526967Y-13956960D02*
X10498396Y-13966484D01*
X10498396Y-13966484D02*
X10450777Y-13966484D01*
X10650777Y-13966484D02*
X10650777Y-13833150D01*
X10650777Y-13871246D02*
X10660301Y-13852198D01*
X10660301Y-13852198D02*
X10669824Y-13842674D01*
X10669824Y-13842674D02*
X10688872Y-13833150D01*
X10688872Y-13833150D02*
X10707920Y-13833150D01*
X10774586Y-13966484D02*
X10774586Y-13833150D01*
X10774586Y-13766484D02*
X10765063Y-13776008D01*
X10765063Y-13776008D02*
X10774586Y-13785531D01*
X10774586Y-13785531D02*
X10784110Y-13776008D01*
X10784110Y-13776008D02*
X10774586Y-13766484D01*
X10774586Y-13766484D02*
X10774586Y-13785531D01*
X10898396Y-13966484D02*
X10879348Y-13956960D01*
X10879348Y-13956960D02*
X10869824Y-13937912D01*
X10869824Y-13937912D02*
X10869824Y-13766484D01*
X11003158Y-13966484D02*
X10984110Y-13956960D01*
X10984110Y-13956960D02*
X10974586Y-13937912D01*
X10974586Y-13937912D02*
X10974586Y-13766484D01*
X11231729Y-13966484D02*
X11231729Y-13766484D01*
X11231729Y-13766484D02*
X11298396Y-13909341D01*
X11298396Y-13909341D02*
X11365062Y-13766484D01*
X11365062Y-13766484D02*
X11365062Y-13966484D01*
X11546015Y-13966484D02*
X11546015Y-13861722D01*
X11546015Y-13861722D02*
X11536491Y-13842674D01*
X11536491Y-13842674D02*
X11517443Y-13833150D01*
X11517443Y-13833150D02*
X11479348Y-13833150D01*
X11479348Y-13833150D02*
X11460301Y-13842674D01*
X11546015Y-13956960D02*
X11526967Y-13966484D01*
X11526967Y-13966484D02*
X11479348Y-13966484D01*
X11479348Y-13966484D02*
X11460301Y-13956960D01*
X11460301Y-13956960D02*
X11450777Y-13937912D01*
X11450777Y-13937912D02*
X11450777Y-13918865D01*
X11450777Y-13918865D02*
X11460301Y-13899817D01*
X11460301Y-13899817D02*
X11479348Y-13890293D01*
X11479348Y-13890293D02*
X11526967Y-13890293D01*
X11526967Y-13890293D02*
X11546015Y-13880769D01*
X11641253Y-13833150D02*
X11641253Y-14033150D01*
X11641253Y-13842674D02*
X11660301Y-13833150D01*
X11660301Y-13833150D02*
X11698396Y-13833150D01*
X11698396Y-13833150D02*
X11717443Y-13842674D01*
X11717443Y-13842674D02*
X11726967Y-13852198D01*
X11726967Y-13852198D02*
X11736491Y-13871246D01*
X11736491Y-13871246D02*
X11736491Y-13928388D01*
X11736491Y-13928388D02*
X11726967Y-13947436D01*
X11726967Y-13947436D02*
X11717443Y-13956960D01*
X11717443Y-13956960D02*
X11698396Y-13966484D01*
X11698396Y-13966484D02*
X11660301Y-13966484D01*
X11660301Y-13966484D02*
X11641253Y-13956960D01*
X11822205Y-13947436D02*
X11831729Y-13956960D01*
X11831729Y-13956960D02*
X11822205Y-13966484D01*
X11822205Y-13966484D02*
X11812682Y-13956960D01*
X11812682Y-13956960D02*
X11822205Y-13947436D01*
X11822205Y-13947436D02*
X11822205Y-13966484D01*
X11822205Y-13842674D02*
X11831729Y-13852198D01*
X11831729Y-13852198D02*
X11822205Y-13861722D01*
X11822205Y-13861722D02*
X11812682Y-13852198D01*
X11812682Y-13852198D02*
X11822205Y-13842674D01*
X11822205Y-13842674D02*
X11822205Y-13861722D01*
D11*
X10070000Y-14235000D02*
X10190000Y-14355000D01*
X10190000Y-14235000D02*
X10070000Y-14355000D01*
D10*
X10555539Y-14386484D02*
X10441253Y-14386484D01*
X10498396Y-14386484D02*
X10498396Y-14186484D01*
X10498396Y-14186484D02*
X10479348Y-14215055D01*
X10479348Y-14215055D02*
X10460301Y-14234103D01*
X10460301Y-14234103D02*
X10441253Y-14243627D01*
X10641253Y-14367436D02*
X10650777Y-14376960D01*
X10650777Y-14376960D02*
X10641253Y-14386484D01*
X10641253Y-14386484D02*
X10631729Y-14376960D01*
X10631729Y-14376960D02*
X10641253Y-14367436D01*
X10641253Y-14367436D02*
X10641253Y-14386484D01*
X10726967Y-14205531D02*
X10736491Y-14196008D01*
X10736491Y-14196008D02*
X10755539Y-14186484D01*
X10755539Y-14186484D02*
X10803158Y-14186484D01*
X10803158Y-14186484D02*
X10822205Y-14196008D01*
X10822205Y-14196008D02*
X10831729Y-14205531D01*
X10831729Y-14205531D02*
X10841253Y-14224579D01*
X10841253Y-14224579D02*
X10841253Y-14243627D01*
X10841253Y-14243627D02*
X10831729Y-14272198D01*
X10831729Y-14272198D02*
X10717444Y-14386484D01*
X10717444Y-14386484D02*
X10841253Y-14386484D01*
X10965063Y-14186484D02*
X10984110Y-14186484D01*
X10984110Y-14186484D02*
X11003158Y-14196008D01*
X11003158Y-14196008D02*
X11012682Y-14205531D01*
X11012682Y-14205531D02*
X11022205Y-14224579D01*
X11022205Y-14224579D02*
X11031729Y-14262674D01*
X11031729Y-14262674D02*
X11031729Y-14310293D01*
X11031729Y-14310293D02*
X11022205Y-14348388D01*
X11022205Y-14348388D02*
X11012682Y-14367436D01*
X11012682Y-14367436D02*
X11003158Y-14376960D01*
X11003158Y-14376960D02*
X10984110Y-14386484D01*
X10984110Y-14386484D02*
X10965063Y-14386484D01*
X10965063Y-14386484D02*
X10946015Y-14376960D01*
X10946015Y-14376960D02*
X10936491Y-14367436D01*
X10936491Y-14367436D02*
X10926967Y-14348388D01*
X10926967Y-14348388D02*
X10917444Y-14310293D01*
X10917444Y-14310293D02*
X10917444Y-14262674D01*
X10917444Y-14262674D02*
X10926967Y-14224579D01*
X10926967Y-14224579D02*
X10936491Y-14205531D01*
X10936491Y-14205531D02*
X10946015Y-14196008D01*
X10946015Y-14196008D02*
X10965063Y-14186484D01*
X11155539Y-14186484D02*
X11174586Y-14186484D01*
X11174586Y-14186484D02*
X11193634Y-14196008D01*
X11193634Y-14196008D02*
X11203158Y-14205531D01*
X11203158Y-14205531D02*
X11212682Y-14224579D01*
X11212682Y-14224579D02*
X11222205Y-14262674D01*
X11222205Y-14262674D02*
X11222205Y-14310293D01*
X11222205Y-14310293D02*
X11212682Y-14348388D01*
X11212682Y-14348388D02*
X11203158Y-14367436D01*
X11203158Y-14367436D02*
X11193634Y-14376960D01*
X11193634Y-14376960D02*
X11174586Y-14386484D01*
X11174586Y-14386484D02*
X11155539Y-14386484D01*
X11155539Y-14386484D02*
X11136491Y-14376960D01*
X11136491Y-14376960D02*
X11126967Y-14367436D01*
X11126967Y-14367436D02*
X11117444Y-14348388D01*
X11117444Y-14348388D02*
X11107920Y-14310293D01*
X11107920Y-14310293D02*
X11107920Y-14262674D01*
X11107920Y-14262674D02*
X11117444Y-14224579D01*
X11117444Y-14224579D02*
X11126967Y-14205531D01*
X11126967Y-14205531D02*
X11136491Y-14196008D01*
X11136491Y-14196008D02*
X11155539Y-14186484D01*
X11307920Y-14386484D02*
X11307920Y-14253150D01*
X11307920Y-14272198D02*
X11317443Y-14262674D01*
X11317443Y-14262674D02*
X11336491Y-14253150D01*
X11336491Y-14253150D02*
X11365063Y-14253150D01*
X11365063Y-14253150D02*
X11384110Y-14262674D01*
X11384110Y-14262674D02*
X11393634Y-14281722D01*
X11393634Y-14281722D02*
X11393634Y-14386484D01*
X11393634Y-14281722D02*
X11403158Y-14262674D01*
X11403158Y-14262674D02*
X11422205Y-14253150D01*
X11422205Y-14253150D02*
X11450777Y-14253150D01*
X11450777Y-14253150D02*
X11469824Y-14262674D01*
X11469824Y-14262674D02*
X11479348Y-14281722D01*
X11479348Y-14281722D02*
X11479348Y-14386484D01*
X11574586Y-14386484D02*
X11574586Y-14253150D01*
X11574586Y-14272198D02*
X11584110Y-14262674D01*
X11584110Y-14262674D02*
X11603158Y-14253150D01*
X11603158Y-14253150D02*
X11631729Y-14253150D01*
X11631729Y-14253150D02*
X11650777Y-14262674D01*
X11650777Y-14262674D02*
X11660301Y-14281722D01*
X11660301Y-14281722D02*
X11660301Y-14386484D01*
X11660301Y-14281722D02*
X11669824Y-14262674D01*
X11669824Y-14262674D02*
X11688872Y-14253150D01*
X11688872Y-14253150D02*
X11717443Y-14253150D01*
X11717443Y-14253150D02*
X11736491Y-14262674D01*
X11736491Y-14262674D02*
X11746015Y-14281722D01*
X11746015Y-14281722D02*
X11746015Y-14386484D01*
X12136491Y-14176960D02*
X11965063Y-14434103D01*
X12393634Y-14186484D02*
X12412682Y-14186484D01*
X12412682Y-14186484D02*
X12431729Y-14196008D01*
X12431729Y-14196008D02*
X12441253Y-14205531D01*
X12441253Y-14205531D02*
X12450777Y-14224579D01*
X12450777Y-14224579D02*
X12460301Y-14262674D01*
X12460301Y-14262674D02*
X12460301Y-14310293D01*
X12460301Y-14310293D02*
X12450777Y-14348388D01*
X12450777Y-14348388D02*
X12441253Y-14367436D01*
X12441253Y-14367436D02*
X12431729Y-14376960D01*
X12431729Y-14376960D02*
X12412682Y-14386484D01*
X12412682Y-14386484D02*
X12393634Y-14386484D01*
X12393634Y-14386484D02*
X12374586Y-14376960D01*
X12374586Y-14376960D02*
X12365063Y-14367436D01*
X12365063Y-14367436D02*
X12355539Y-14348388D01*
X12355539Y-14348388D02*
X12346015Y-14310293D01*
X12346015Y-14310293D02*
X12346015Y-14262674D01*
X12346015Y-14262674D02*
X12355539Y-14224579D01*
X12355539Y-14224579D02*
X12365063Y-14205531D01*
X12365063Y-14205531D02*
X12374586Y-14196008D01*
X12374586Y-14196008D02*
X12393634Y-14186484D01*
X12546015Y-14367436D02*
X12555539Y-14376960D01*
X12555539Y-14376960D02*
X12546015Y-14386484D01*
X12546015Y-14386484D02*
X12536491Y-14376960D01*
X12536491Y-14376960D02*
X12546015Y-14367436D01*
X12546015Y-14367436D02*
X12546015Y-14386484D01*
X12679348Y-14186484D02*
X12698396Y-14186484D01*
X12698396Y-14186484D02*
X12717444Y-14196008D01*
X12717444Y-14196008D02*
X12726967Y-14205531D01*
X12726967Y-14205531D02*
X12736491Y-14224579D01*
X12736491Y-14224579D02*
X12746015Y-14262674D01*
X12746015Y-14262674D02*
X12746015Y-14310293D01*
X12746015Y-14310293D02*
X12736491Y-14348388D01*
X12736491Y-14348388D02*
X12726967Y-14367436D01*
X12726967Y-14367436D02*
X12717444Y-14376960D01*
X12717444Y-14376960D02*
X12698396Y-14386484D01*
X12698396Y-14386484D02*
X12679348Y-14386484D01*
X12679348Y-14386484D02*
X12660301Y-14376960D01*
X12660301Y-14376960D02*
X12650777Y-14367436D01*
X12650777Y-14367436D02*
X12641253Y-14348388D01*
X12641253Y-14348388D02*
X12631729Y-14310293D01*
X12631729Y-14310293D02*
X12631729Y-14262674D01*
X12631729Y-14262674D02*
X12641253Y-14224579D01*
X12641253Y-14224579D02*
X12650777Y-14205531D01*
X12650777Y-14205531D02*
X12660301Y-14196008D01*
X12660301Y-14196008D02*
X12679348Y-14186484D01*
X12917444Y-14253150D02*
X12917444Y-14386484D01*
X12869825Y-14176960D02*
X12822206Y-14319817D01*
X12822206Y-14319817D02*
X12946015Y-14319817D01*
X13003158Y-14186484D02*
X13136491Y-14186484D01*
X13136491Y-14186484D02*
X13050777Y-14386484D01*
X13203158Y-14205531D02*
X13212682Y-14196008D01*
X13212682Y-14196008D02*
X13231729Y-14186484D01*
X13231729Y-14186484D02*
X13279348Y-14186484D01*
X13279348Y-14186484D02*
X13298396Y-14196008D01*
X13298396Y-14196008D02*
X13307920Y-14205531D01*
X13307920Y-14205531D02*
X13317444Y-14224579D01*
X13317444Y-14224579D02*
X13317444Y-14243627D01*
X13317444Y-14243627D02*
X13307920Y-14272198D01*
X13307920Y-14272198D02*
X13193634Y-14386484D01*
X13193634Y-14386484D02*
X13317444Y-14386484D01*
X13393634Y-14186484D02*
X13393634Y-14224579D01*
X13469825Y-14186484D02*
X13469825Y-14224579D01*
X13765063Y-14462674D02*
X13755539Y-14453150D01*
X13755539Y-14453150D02*
X13736491Y-14424579D01*
X13736491Y-14424579D02*
X13726968Y-14405531D01*
X13726968Y-14405531D02*
X13717444Y-14376960D01*
X13717444Y-14376960D02*
X13707920Y-14329341D01*
X13707920Y-14329341D02*
X13707920Y-14291246D01*
X13707920Y-14291246D02*
X13717444Y-14243627D01*
X13717444Y-14243627D02*
X13726968Y-14215055D01*
X13726968Y-14215055D02*
X13736491Y-14196008D01*
X13736491Y-14196008D02*
X13755539Y-14167436D01*
X13755539Y-14167436D02*
X13765063Y-14157912D01*
X13822206Y-14186484D02*
X13946015Y-14186484D01*
X13946015Y-14186484D02*
X13879348Y-14262674D01*
X13879348Y-14262674D02*
X13907920Y-14262674D01*
X13907920Y-14262674D02*
X13926968Y-14272198D01*
X13926968Y-14272198D02*
X13936491Y-14281722D01*
X13936491Y-14281722D02*
X13946015Y-14300769D01*
X13946015Y-14300769D02*
X13946015Y-14348388D01*
X13946015Y-14348388D02*
X13936491Y-14367436D01*
X13936491Y-14367436D02*
X13926968Y-14376960D01*
X13926968Y-14376960D02*
X13907920Y-14386484D01*
X13907920Y-14386484D02*
X13850777Y-14386484D01*
X13850777Y-14386484D02*
X13831729Y-14376960D01*
X13831729Y-14376960D02*
X13822206Y-14367436D01*
X14184110Y-14386484D02*
X14184110Y-14186484D01*
X14269825Y-14386484D02*
X14269825Y-14281722D01*
X14269825Y-14281722D02*
X14260301Y-14262674D01*
X14260301Y-14262674D02*
X14241253Y-14253150D01*
X14241253Y-14253150D02*
X14212682Y-14253150D01*
X14212682Y-14253150D02*
X14193634Y-14262674D01*
X14193634Y-14262674D02*
X14184110Y-14272198D01*
X14393634Y-14386484D02*
X14374587Y-14376960D01*
X14374587Y-14376960D02*
X14365063Y-14367436D01*
X14365063Y-14367436D02*
X14355539Y-14348388D01*
X14355539Y-14348388D02*
X14355539Y-14291246D01*
X14355539Y-14291246D02*
X14365063Y-14272198D01*
X14365063Y-14272198D02*
X14374587Y-14262674D01*
X14374587Y-14262674D02*
X14393634Y-14253150D01*
X14393634Y-14253150D02*
X14422206Y-14253150D01*
X14422206Y-14253150D02*
X14441253Y-14262674D01*
X14441253Y-14262674D02*
X14450777Y-14272198D01*
X14450777Y-14272198D02*
X14460301Y-14291246D01*
X14460301Y-14291246D02*
X14460301Y-14348388D01*
X14460301Y-14348388D02*
X14450777Y-14367436D01*
X14450777Y-14367436D02*
X14441253Y-14376960D01*
X14441253Y-14376960D02*
X14422206Y-14386484D01*
X14422206Y-14386484D02*
X14393634Y-14386484D01*
X14574587Y-14386484D02*
X14555539Y-14376960D01*
X14555539Y-14376960D02*
X14546015Y-14357912D01*
X14546015Y-14357912D02*
X14546015Y-14186484D01*
X14726968Y-14376960D02*
X14707920Y-14386484D01*
X14707920Y-14386484D02*
X14669825Y-14386484D01*
X14669825Y-14386484D02*
X14650777Y-14376960D01*
X14650777Y-14376960D02*
X14641253Y-14357912D01*
X14641253Y-14357912D02*
X14641253Y-14281722D01*
X14641253Y-14281722D02*
X14650777Y-14262674D01*
X14650777Y-14262674D02*
X14669825Y-14253150D01*
X14669825Y-14253150D02*
X14707920Y-14253150D01*
X14707920Y-14253150D02*
X14726968Y-14262674D01*
X14726968Y-14262674D02*
X14736491Y-14281722D01*
X14736491Y-14281722D02*
X14736491Y-14300769D01*
X14736491Y-14300769D02*
X14641253Y-14319817D01*
X14812682Y-14376960D02*
X14831730Y-14386484D01*
X14831730Y-14386484D02*
X14869825Y-14386484D01*
X14869825Y-14386484D02*
X14888872Y-14376960D01*
X14888872Y-14376960D02*
X14898396Y-14357912D01*
X14898396Y-14357912D02*
X14898396Y-14348388D01*
X14898396Y-14348388D02*
X14888872Y-14329341D01*
X14888872Y-14329341D02*
X14869825Y-14319817D01*
X14869825Y-14319817D02*
X14841253Y-14319817D01*
X14841253Y-14319817D02*
X14822206Y-14310293D01*
X14822206Y-14310293D02*
X14812682Y-14291246D01*
X14812682Y-14291246D02*
X14812682Y-14281722D01*
X14812682Y-14281722D02*
X14822206Y-14262674D01*
X14822206Y-14262674D02*
X14841253Y-14253150D01*
X14841253Y-14253150D02*
X14869825Y-14253150D01*
X14869825Y-14253150D02*
X14888872Y-14262674D01*
X14965063Y-14462674D02*
X14974587Y-14453150D01*
X14974587Y-14453150D02*
X14993634Y-14424579D01*
X14993634Y-14424579D02*
X15003158Y-14405531D01*
X15003158Y-14405531D02*
X15012682Y-14376960D01*
X15012682Y-14376960D02*
X15022206Y-14329341D01*
X15022206Y-14329341D02*
X15022206Y-14291246D01*
X15022206Y-14291246D02*
X15012682Y-14243627D01*
X15012682Y-14243627D02*
X15003158Y-14215055D01*
X15003158Y-14215055D02*
X14993634Y-14196008D01*
X14993634Y-14196008D02*
X14974587Y-14167436D01*
X14974587Y-14167436D02*
X14965063Y-14157912D01*
X15326968Y-14462674D02*
X15317444Y-14453150D01*
X15317444Y-14453150D02*
X15298396Y-14424579D01*
X15298396Y-14424579D02*
X15288872Y-14405531D01*
X15288872Y-14405531D02*
X15279349Y-14376960D01*
X15279349Y-14376960D02*
X15269825Y-14329341D01*
X15269825Y-14329341D02*
X15269825Y-14291246D01*
X15269825Y-14291246D02*
X15279349Y-14243627D01*
X15279349Y-14243627D02*
X15288872Y-14215055D01*
X15288872Y-14215055D02*
X15298396Y-14196008D01*
X15298396Y-14196008D02*
X15317444Y-14167436D01*
X15317444Y-14167436D02*
X15326968Y-14157912D01*
X15403158Y-14253150D02*
X15403158Y-14386484D01*
X15403158Y-14272198D02*
X15412682Y-14262674D01*
X15412682Y-14262674D02*
X15431730Y-14253150D01*
X15431730Y-14253150D02*
X15460301Y-14253150D01*
X15460301Y-14253150D02*
X15479349Y-14262674D01*
X15479349Y-14262674D02*
X15488872Y-14281722D01*
X15488872Y-14281722D02*
X15488872Y-14386484D01*
X15612682Y-14386484D02*
X15593634Y-14376960D01*
X15593634Y-14376960D02*
X15584111Y-14367436D01*
X15584111Y-14367436D02*
X15574587Y-14348388D01*
X15574587Y-14348388D02*
X15574587Y-14291246D01*
X15574587Y-14291246D02*
X15584111Y-14272198D01*
X15584111Y-14272198D02*
X15593634Y-14262674D01*
X15593634Y-14262674D02*
X15612682Y-14253150D01*
X15612682Y-14253150D02*
X15641253Y-14253150D01*
X15641253Y-14253150D02*
X15660301Y-14262674D01*
X15660301Y-14262674D02*
X15669825Y-14272198D01*
X15669825Y-14272198D02*
X15679349Y-14291246D01*
X15679349Y-14291246D02*
X15679349Y-14348388D01*
X15679349Y-14348388D02*
X15669825Y-14367436D01*
X15669825Y-14367436D02*
X15660301Y-14376960D01*
X15660301Y-14376960D02*
X15641253Y-14386484D01*
X15641253Y-14386484D02*
X15612682Y-14386484D01*
X15736492Y-14253150D02*
X15812682Y-14253150D01*
X15765063Y-14186484D02*
X15765063Y-14357912D01*
X15765063Y-14357912D02*
X15774587Y-14376960D01*
X15774587Y-14376960D02*
X15793634Y-14386484D01*
X15793634Y-14386484D02*
X15812682Y-14386484D01*
X16031730Y-14253150D02*
X16031730Y-14453150D01*
X16031730Y-14262674D02*
X16050777Y-14253150D01*
X16050777Y-14253150D02*
X16088873Y-14253150D01*
X16088873Y-14253150D02*
X16107920Y-14262674D01*
X16107920Y-14262674D02*
X16117444Y-14272198D01*
X16117444Y-14272198D02*
X16126968Y-14291246D01*
X16126968Y-14291246D02*
X16126968Y-14348388D01*
X16126968Y-14348388D02*
X16117444Y-14367436D01*
X16117444Y-14367436D02*
X16107920Y-14376960D01*
X16107920Y-14376960D02*
X16088873Y-14386484D01*
X16088873Y-14386484D02*
X16050777Y-14386484D01*
X16050777Y-14386484D02*
X16031730Y-14376960D01*
X16241253Y-14386484D02*
X16222206Y-14376960D01*
X16222206Y-14376960D02*
X16212682Y-14357912D01*
X16212682Y-14357912D02*
X16212682Y-14186484D01*
X16403158Y-14386484D02*
X16403158Y-14281722D01*
X16403158Y-14281722D02*
X16393634Y-14262674D01*
X16393634Y-14262674D02*
X16374587Y-14253150D01*
X16374587Y-14253150D02*
X16336492Y-14253150D01*
X16336492Y-14253150D02*
X16317444Y-14262674D01*
X16403158Y-14376960D02*
X16384111Y-14386484D01*
X16384111Y-14386484D02*
X16336492Y-14386484D01*
X16336492Y-14386484D02*
X16317444Y-14376960D01*
X16317444Y-14376960D02*
X16307920Y-14357912D01*
X16307920Y-14357912D02*
X16307920Y-14338865D01*
X16307920Y-14338865D02*
X16317444Y-14319817D01*
X16317444Y-14319817D02*
X16336492Y-14310293D01*
X16336492Y-14310293D02*
X16384111Y-14310293D01*
X16384111Y-14310293D02*
X16403158Y-14300769D01*
X16469825Y-14253150D02*
X16546015Y-14253150D01*
X16498396Y-14186484D02*
X16498396Y-14357912D01*
X16498396Y-14357912D02*
X16507920Y-14376960D01*
X16507920Y-14376960D02*
X16526968Y-14386484D01*
X16526968Y-14386484D02*
X16546015Y-14386484D01*
X16688873Y-14376960D02*
X16669825Y-14386484D01*
X16669825Y-14386484D02*
X16631730Y-14386484D01*
X16631730Y-14386484D02*
X16612682Y-14376960D01*
X16612682Y-14376960D02*
X16603158Y-14357912D01*
X16603158Y-14357912D02*
X16603158Y-14281722D01*
X16603158Y-14281722D02*
X16612682Y-14262674D01*
X16612682Y-14262674D02*
X16631730Y-14253150D01*
X16631730Y-14253150D02*
X16669825Y-14253150D01*
X16669825Y-14253150D02*
X16688873Y-14262674D01*
X16688873Y-14262674D02*
X16698396Y-14281722D01*
X16698396Y-14281722D02*
X16698396Y-14300769D01*
X16698396Y-14300769D02*
X16603158Y-14319817D01*
X16869825Y-14386484D02*
X16869825Y-14186484D01*
X16869825Y-14376960D02*
X16850777Y-14386484D01*
X16850777Y-14386484D02*
X16812682Y-14386484D01*
X16812682Y-14386484D02*
X16793635Y-14376960D01*
X16793635Y-14376960D02*
X16784111Y-14367436D01*
X16784111Y-14367436D02*
X16774587Y-14348388D01*
X16774587Y-14348388D02*
X16774587Y-14291246D01*
X16774587Y-14291246D02*
X16784111Y-14272198D01*
X16784111Y-14272198D02*
X16793635Y-14262674D01*
X16793635Y-14262674D02*
X16812682Y-14253150D01*
X16812682Y-14253150D02*
X16850777Y-14253150D01*
X16850777Y-14253150D02*
X16869825Y-14262674D01*
X16946016Y-14462674D02*
X16955539Y-14453150D01*
X16955539Y-14453150D02*
X16974587Y-14424579D01*
X16974587Y-14424579D02*
X16984111Y-14405531D01*
X16984111Y-14405531D02*
X16993635Y-14376960D01*
X16993635Y-14376960D02*
X17003158Y-14329341D01*
X17003158Y-14329341D02*
X17003158Y-14291246D01*
X17003158Y-14291246D02*
X16993635Y-14243627D01*
X16993635Y-14243627D02*
X16984111Y-14215055D01*
X16984111Y-14215055D02*
X16974587Y-14196008D01*
X16974587Y-14196008D02*
X16955539Y-14167436D01*
X16955539Y-14167436D02*
X16946016Y-14157912D01*
D12*
X10190000Y-14559000D02*
G75*
G02*
X10065000Y-14559000I-62500J0D01*
G01*
X10065000Y-14559000D02*
G75*
G02*
X10190000Y-14559000I62500J0D01*
G01*
D10*
X10555539Y-14650484D02*
X10441253Y-14650484D01*
X10498396Y-14650484D02*
X10498396Y-14450484D01*
X10498396Y-14450484D02*
X10479348Y-14479055D01*
X10479348Y-14479055D02*
X10460301Y-14498103D01*
X10460301Y-14498103D02*
X10441253Y-14507627D01*
X10641253Y-14631436D02*
X10650777Y-14640960D01*
X10650777Y-14640960D02*
X10641253Y-14650484D01*
X10641253Y-14650484D02*
X10631729Y-14640960D01*
X10631729Y-14640960D02*
X10641253Y-14631436D01*
X10641253Y-14631436D02*
X10641253Y-14650484D01*
X10726967Y-14469531D02*
X10736491Y-14460008D01*
X10736491Y-14460008D02*
X10755539Y-14450484D01*
X10755539Y-14450484D02*
X10803158Y-14450484D01*
X10803158Y-14450484D02*
X10822205Y-14460008D01*
X10822205Y-14460008D02*
X10831729Y-14469531D01*
X10831729Y-14469531D02*
X10841253Y-14488579D01*
X10841253Y-14488579D02*
X10841253Y-14507627D01*
X10841253Y-14507627D02*
X10831729Y-14536198D01*
X10831729Y-14536198D02*
X10717444Y-14650484D01*
X10717444Y-14650484D02*
X10841253Y-14650484D01*
X11022205Y-14450484D02*
X10926967Y-14450484D01*
X10926967Y-14450484D02*
X10917444Y-14545722D01*
X10917444Y-14545722D02*
X10926967Y-14536198D01*
X10926967Y-14536198D02*
X10946015Y-14526674D01*
X10946015Y-14526674D02*
X10993634Y-14526674D01*
X10993634Y-14526674D02*
X11012682Y-14536198D01*
X11012682Y-14536198D02*
X11022205Y-14545722D01*
X11022205Y-14545722D02*
X11031729Y-14564769D01*
X11031729Y-14564769D02*
X11031729Y-14612388D01*
X11031729Y-14612388D02*
X11022205Y-14631436D01*
X11022205Y-14631436D02*
X11012682Y-14640960D01*
X11012682Y-14640960D02*
X10993634Y-14650484D01*
X10993634Y-14650484D02*
X10946015Y-14650484D01*
X10946015Y-14650484D02*
X10926967Y-14640960D01*
X10926967Y-14640960D02*
X10917444Y-14631436D01*
X11155539Y-14450484D02*
X11174586Y-14450484D01*
X11174586Y-14450484D02*
X11193634Y-14460008D01*
X11193634Y-14460008D02*
X11203158Y-14469531D01*
X11203158Y-14469531D02*
X11212682Y-14488579D01*
X11212682Y-14488579D02*
X11222205Y-14526674D01*
X11222205Y-14526674D02*
X11222205Y-14574293D01*
X11222205Y-14574293D02*
X11212682Y-14612388D01*
X11212682Y-14612388D02*
X11203158Y-14631436D01*
X11203158Y-14631436D02*
X11193634Y-14640960D01*
X11193634Y-14640960D02*
X11174586Y-14650484D01*
X11174586Y-14650484D02*
X11155539Y-14650484D01*
X11155539Y-14650484D02*
X11136491Y-14640960D01*
X11136491Y-14640960D02*
X11126967Y-14631436D01*
X11126967Y-14631436D02*
X11117444Y-14612388D01*
X11117444Y-14612388D02*
X11107920Y-14574293D01*
X11107920Y-14574293D02*
X11107920Y-14526674D01*
X11107920Y-14526674D02*
X11117444Y-14488579D01*
X11117444Y-14488579D02*
X11126967Y-14469531D01*
X11126967Y-14469531D02*
X11136491Y-14460008D01*
X11136491Y-14460008D02*
X11155539Y-14450484D01*
X11307920Y-14650484D02*
X11307920Y-14517150D01*
X11307920Y-14536198D02*
X11317443Y-14526674D01*
X11317443Y-14526674D02*
X11336491Y-14517150D01*
X11336491Y-14517150D02*
X11365063Y-14517150D01*
X11365063Y-14517150D02*
X11384110Y-14526674D01*
X11384110Y-14526674D02*
X11393634Y-14545722D01*
X11393634Y-14545722D02*
X11393634Y-14650484D01*
X11393634Y-14545722D02*
X11403158Y-14526674D01*
X11403158Y-14526674D02*
X11422205Y-14517150D01*
X11422205Y-14517150D02*
X11450777Y-14517150D01*
X11450777Y-14517150D02*
X11469824Y-14526674D01*
X11469824Y-14526674D02*
X11479348Y-14545722D01*
X11479348Y-14545722D02*
X11479348Y-14650484D01*
X11574586Y-14650484D02*
X11574586Y-14517150D01*
X11574586Y-14536198D02*
X11584110Y-14526674D01*
X11584110Y-14526674D02*
X11603158Y-14517150D01*
X11603158Y-14517150D02*
X11631729Y-14517150D01*
X11631729Y-14517150D02*
X11650777Y-14526674D01*
X11650777Y-14526674D02*
X11660301Y-14545722D01*
X11660301Y-14545722D02*
X11660301Y-14650484D01*
X11660301Y-14545722D02*
X11669824Y-14526674D01*
X11669824Y-14526674D02*
X11688872Y-14517150D01*
X11688872Y-14517150D02*
X11717443Y-14517150D01*
X11717443Y-14517150D02*
X11736491Y-14526674D01*
X11736491Y-14526674D02*
X11746015Y-14545722D01*
X11746015Y-14545722D02*
X11746015Y-14650484D01*
X12136491Y-14440960D02*
X11965063Y-14698103D01*
X12393634Y-14450484D02*
X12412682Y-14450484D01*
X12412682Y-14450484D02*
X12431729Y-14460008D01*
X12431729Y-14460008D02*
X12441253Y-14469531D01*
X12441253Y-14469531D02*
X12450777Y-14488579D01*
X12450777Y-14488579D02*
X12460301Y-14526674D01*
X12460301Y-14526674D02*
X12460301Y-14574293D01*
X12460301Y-14574293D02*
X12450777Y-14612388D01*
X12450777Y-14612388D02*
X12441253Y-14631436D01*
X12441253Y-14631436D02*
X12431729Y-14640960D01*
X12431729Y-14640960D02*
X12412682Y-14650484D01*
X12412682Y-14650484D02*
X12393634Y-14650484D01*
X12393634Y-14650484D02*
X12374586Y-14640960D01*
X12374586Y-14640960D02*
X12365063Y-14631436D01*
X12365063Y-14631436D02*
X12355539Y-14612388D01*
X12355539Y-14612388D02*
X12346015Y-14574293D01*
X12346015Y-14574293D02*
X12346015Y-14526674D01*
X12346015Y-14526674D02*
X12355539Y-14488579D01*
X12355539Y-14488579D02*
X12365063Y-14469531D01*
X12365063Y-14469531D02*
X12374586Y-14460008D01*
X12374586Y-14460008D02*
X12393634Y-14450484D01*
X12546015Y-14631436D02*
X12555539Y-14640960D01*
X12555539Y-14640960D02*
X12546015Y-14650484D01*
X12546015Y-14650484D02*
X12536491Y-14640960D01*
X12536491Y-14640960D02*
X12546015Y-14631436D01*
X12546015Y-14631436D02*
X12546015Y-14650484D01*
X12679348Y-14450484D02*
X12698396Y-14450484D01*
X12698396Y-14450484D02*
X12717444Y-14460008D01*
X12717444Y-14460008D02*
X12726967Y-14469531D01*
X12726967Y-14469531D02*
X12736491Y-14488579D01*
X12736491Y-14488579D02*
X12746015Y-14526674D01*
X12746015Y-14526674D02*
X12746015Y-14574293D01*
X12746015Y-14574293D02*
X12736491Y-14612388D01*
X12736491Y-14612388D02*
X12726967Y-14631436D01*
X12726967Y-14631436D02*
X12717444Y-14640960D01*
X12717444Y-14640960D02*
X12698396Y-14650484D01*
X12698396Y-14650484D02*
X12679348Y-14650484D01*
X12679348Y-14650484D02*
X12660301Y-14640960D01*
X12660301Y-14640960D02*
X12650777Y-14631436D01*
X12650777Y-14631436D02*
X12641253Y-14612388D01*
X12641253Y-14612388D02*
X12631729Y-14574293D01*
X12631729Y-14574293D02*
X12631729Y-14526674D01*
X12631729Y-14526674D02*
X12641253Y-14488579D01*
X12641253Y-14488579D02*
X12650777Y-14469531D01*
X12650777Y-14469531D02*
X12660301Y-14460008D01*
X12660301Y-14460008D02*
X12679348Y-14450484D01*
X12917444Y-14517150D02*
X12917444Y-14650484D01*
X12869825Y-14440960D02*
X12822206Y-14583817D01*
X12822206Y-14583817D02*
X12946015Y-14583817D01*
X13031729Y-14650484D02*
X13069825Y-14650484D01*
X13069825Y-14650484D02*
X13088872Y-14640960D01*
X13088872Y-14640960D02*
X13098396Y-14631436D01*
X13098396Y-14631436D02*
X13117444Y-14602865D01*
X13117444Y-14602865D02*
X13126967Y-14564769D01*
X13126967Y-14564769D02*
X13126967Y-14488579D01*
X13126967Y-14488579D02*
X13117444Y-14469531D01*
X13117444Y-14469531D02*
X13107920Y-14460008D01*
X13107920Y-14460008D02*
X13088872Y-14450484D01*
X13088872Y-14450484D02*
X13050777Y-14450484D01*
X13050777Y-14450484D02*
X13031729Y-14460008D01*
X13031729Y-14460008D02*
X13022206Y-14469531D01*
X13022206Y-14469531D02*
X13012682Y-14488579D01*
X13012682Y-14488579D02*
X13012682Y-14536198D01*
X13012682Y-14536198D02*
X13022206Y-14555246D01*
X13022206Y-14555246D02*
X13031729Y-14564769D01*
X13031729Y-14564769D02*
X13050777Y-14574293D01*
X13050777Y-14574293D02*
X13088872Y-14574293D01*
X13088872Y-14574293D02*
X13107920Y-14564769D01*
X13107920Y-14564769D02*
X13117444Y-14555246D01*
X13117444Y-14555246D02*
X13126967Y-14536198D01*
X13203158Y-14469531D02*
X13212682Y-14460008D01*
X13212682Y-14460008D02*
X13231729Y-14450484D01*
X13231729Y-14450484D02*
X13279348Y-14450484D01*
X13279348Y-14450484D02*
X13298396Y-14460008D01*
X13298396Y-14460008D02*
X13307920Y-14469531D01*
X13307920Y-14469531D02*
X13317444Y-14488579D01*
X13317444Y-14488579D02*
X13317444Y-14507627D01*
X13317444Y-14507627D02*
X13307920Y-14536198D01*
X13307920Y-14536198D02*
X13193634Y-14650484D01*
X13193634Y-14650484D02*
X13317444Y-14650484D01*
X13393634Y-14450484D02*
X13393634Y-14488579D01*
X13469825Y-14450484D02*
X13469825Y-14488579D01*
X13765063Y-14726674D02*
X13755539Y-14717150D01*
X13755539Y-14717150D02*
X13736491Y-14688579D01*
X13736491Y-14688579D02*
X13726968Y-14669531D01*
X13726968Y-14669531D02*
X13717444Y-14640960D01*
X13717444Y-14640960D02*
X13707920Y-14593341D01*
X13707920Y-14593341D02*
X13707920Y-14555246D01*
X13707920Y-14555246D02*
X13717444Y-14507627D01*
X13717444Y-14507627D02*
X13726968Y-14479055D01*
X13726968Y-14479055D02*
X13736491Y-14460008D01*
X13736491Y-14460008D02*
X13755539Y-14431436D01*
X13755539Y-14431436D02*
X13765063Y-14421912D01*
X13946015Y-14650484D02*
X13831729Y-14650484D01*
X13888872Y-14650484D02*
X13888872Y-14450484D01*
X13888872Y-14450484D02*
X13869825Y-14479055D01*
X13869825Y-14479055D02*
X13850777Y-14498103D01*
X13850777Y-14498103D02*
X13831729Y-14507627D01*
X14184110Y-14650484D02*
X14184110Y-14450484D01*
X14269825Y-14650484D02*
X14269825Y-14545722D01*
X14269825Y-14545722D02*
X14260301Y-14526674D01*
X14260301Y-14526674D02*
X14241253Y-14517150D01*
X14241253Y-14517150D02*
X14212682Y-14517150D01*
X14212682Y-14517150D02*
X14193634Y-14526674D01*
X14193634Y-14526674D02*
X14184110Y-14536198D01*
X14393634Y-14650484D02*
X14374587Y-14640960D01*
X14374587Y-14640960D02*
X14365063Y-14631436D01*
X14365063Y-14631436D02*
X14355539Y-14612388D01*
X14355539Y-14612388D02*
X14355539Y-14555246D01*
X14355539Y-14555246D02*
X14365063Y-14536198D01*
X14365063Y-14536198D02*
X14374587Y-14526674D01*
X14374587Y-14526674D02*
X14393634Y-14517150D01*
X14393634Y-14517150D02*
X14422206Y-14517150D01*
X14422206Y-14517150D02*
X14441253Y-14526674D01*
X14441253Y-14526674D02*
X14450777Y-14536198D01*
X14450777Y-14536198D02*
X14460301Y-14555246D01*
X14460301Y-14555246D02*
X14460301Y-14612388D01*
X14460301Y-14612388D02*
X14450777Y-14631436D01*
X14450777Y-14631436D02*
X14441253Y-14640960D01*
X14441253Y-14640960D02*
X14422206Y-14650484D01*
X14422206Y-14650484D02*
X14393634Y-14650484D01*
X14574587Y-14650484D02*
X14555539Y-14640960D01*
X14555539Y-14640960D02*
X14546015Y-14621912D01*
X14546015Y-14621912D02*
X14546015Y-14450484D01*
X14726968Y-14640960D02*
X14707920Y-14650484D01*
X14707920Y-14650484D02*
X14669825Y-14650484D01*
X14669825Y-14650484D02*
X14650777Y-14640960D01*
X14650777Y-14640960D02*
X14641253Y-14621912D01*
X14641253Y-14621912D02*
X14641253Y-14545722D01*
X14641253Y-14545722D02*
X14650777Y-14526674D01*
X14650777Y-14526674D02*
X14669825Y-14517150D01*
X14669825Y-14517150D02*
X14707920Y-14517150D01*
X14707920Y-14517150D02*
X14726968Y-14526674D01*
X14726968Y-14526674D02*
X14736491Y-14545722D01*
X14736491Y-14545722D02*
X14736491Y-14564769D01*
X14736491Y-14564769D02*
X14641253Y-14583817D01*
X14803158Y-14726674D02*
X14812682Y-14717150D01*
X14812682Y-14717150D02*
X14831730Y-14688579D01*
X14831730Y-14688579D02*
X14841253Y-14669531D01*
X14841253Y-14669531D02*
X14850777Y-14640960D01*
X14850777Y-14640960D02*
X14860301Y-14593341D01*
X14860301Y-14593341D02*
X14860301Y-14555246D01*
X14860301Y-14555246D02*
X14850777Y-14507627D01*
X14850777Y-14507627D02*
X14841253Y-14479055D01*
X14841253Y-14479055D02*
X14831730Y-14460008D01*
X14831730Y-14460008D02*
X14812682Y-14431436D01*
X14812682Y-14431436D02*
X14803158Y-14421912D01*
X15165063Y-14726674D02*
X15155539Y-14717150D01*
X15155539Y-14717150D02*
X15136491Y-14688579D01*
X15136491Y-14688579D02*
X15126968Y-14669531D01*
X15126968Y-14669531D02*
X15117444Y-14640960D01*
X15117444Y-14640960D02*
X15107920Y-14593341D01*
X15107920Y-14593341D02*
X15107920Y-14555246D01*
X15107920Y-14555246D02*
X15117444Y-14507627D01*
X15117444Y-14507627D02*
X15126968Y-14479055D01*
X15126968Y-14479055D02*
X15136491Y-14460008D01*
X15136491Y-14460008D02*
X15155539Y-14431436D01*
X15155539Y-14431436D02*
X15165063Y-14421912D01*
X15241253Y-14517150D02*
X15241253Y-14650484D01*
X15241253Y-14536198D02*
X15250777Y-14526674D01*
X15250777Y-14526674D02*
X15269825Y-14517150D01*
X15269825Y-14517150D02*
X15298396Y-14517150D01*
X15298396Y-14517150D02*
X15317444Y-14526674D01*
X15317444Y-14526674D02*
X15326968Y-14545722D01*
X15326968Y-14545722D02*
X15326968Y-14650484D01*
X15450777Y-14650484D02*
X15431730Y-14640960D01*
X15431730Y-14640960D02*
X15422206Y-14631436D01*
X15422206Y-14631436D02*
X15412682Y-14612388D01*
X15412682Y-14612388D02*
X15412682Y-14555246D01*
X15412682Y-14555246D02*
X15422206Y-14536198D01*
X15422206Y-14536198D02*
X15431730Y-14526674D01*
X15431730Y-14526674D02*
X15450777Y-14517150D01*
X15450777Y-14517150D02*
X15479349Y-14517150D01*
X15479349Y-14517150D02*
X15498396Y-14526674D01*
X15498396Y-14526674D02*
X15507920Y-14536198D01*
X15507920Y-14536198D02*
X15517444Y-14555246D01*
X15517444Y-14555246D02*
X15517444Y-14612388D01*
X15517444Y-14612388D02*
X15507920Y-14631436D01*
X15507920Y-14631436D02*
X15498396Y-14640960D01*
X15498396Y-14640960D02*
X15479349Y-14650484D01*
X15479349Y-14650484D02*
X15450777Y-14650484D01*
X15574587Y-14517150D02*
X15650777Y-14517150D01*
X15603158Y-14450484D02*
X15603158Y-14621912D01*
X15603158Y-14621912D02*
X15612682Y-14640960D01*
X15612682Y-14640960D02*
X15631730Y-14650484D01*
X15631730Y-14650484D02*
X15650777Y-14650484D01*
X15869825Y-14517150D02*
X15869825Y-14717150D01*
X15869825Y-14526674D02*
X15888872Y-14517150D01*
X15888872Y-14517150D02*
X15926968Y-14517150D01*
X15926968Y-14517150D02*
X15946015Y-14526674D01*
X15946015Y-14526674D02*
X15955539Y-14536198D01*
X15955539Y-14536198D02*
X15965063Y-14555246D01*
X15965063Y-14555246D02*
X15965063Y-14612388D01*
X15965063Y-14612388D02*
X15955539Y-14631436D01*
X15955539Y-14631436D02*
X15946015Y-14640960D01*
X15946015Y-14640960D02*
X15926968Y-14650484D01*
X15926968Y-14650484D02*
X15888872Y-14650484D01*
X15888872Y-14650484D02*
X15869825Y-14640960D01*
X16079349Y-14650484D02*
X16060301Y-14640960D01*
X16060301Y-14640960D02*
X16050777Y-14621912D01*
X16050777Y-14621912D02*
X16050777Y-14450484D01*
X16241253Y-14650484D02*
X16241253Y-14545722D01*
X16241253Y-14545722D02*
X16231730Y-14526674D01*
X16231730Y-14526674D02*
X16212682Y-14517150D01*
X16212682Y-14517150D02*
X16174587Y-14517150D01*
X16174587Y-14517150D02*
X16155539Y-14526674D01*
X16241253Y-14640960D02*
X16222206Y-14650484D01*
X16222206Y-14650484D02*
X16174587Y-14650484D01*
X16174587Y-14650484D02*
X16155539Y-14640960D01*
X16155539Y-14640960D02*
X16146015Y-14621912D01*
X16146015Y-14621912D02*
X16146015Y-14602865D01*
X16146015Y-14602865D02*
X16155539Y-14583817D01*
X16155539Y-14583817D02*
X16174587Y-14574293D01*
X16174587Y-14574293D02*
X16222206Y-14574293D01*
X16222206Y-14574293D02*
X16241253Y-14564769D01*
X16307920Y-14517150D02*
X16384111Y-14517150D01*
X16336492Y-14450484D02*
X16336492Y-14621912D01*
X16336492Y-14621912D02*
X16346015Y-14640960D01*
X16346015Y-14640960D02*
X16365063Y-14650484D01*
X16365063Y-14650484D02*
X16384111Y-14650484D01*
X16526968Y-14640960D02*
X16507920Y-14650484D01*
X16507920Y-14650484D02*
X16469825Y-14650484D01*
X16469825Y-14650484D02*
X16450777Y-14640960D01*
X16450777Y-14640960D02*
X16441253Y-14621912D01*
X16441253Y-14621912D02*
X16441253Y-14545722D01*
X16441253Y-14545722D02*
X16450777Y-14526674D01*
X16450777Y-14526674D02*
X16469825Y-14517150D01*
X16469825Y-14517150D02*
X16507920Y-14517150D01*
X16507920Y-14517150D02*
X16526968Y-14526674D01*
X16526968Y-14526674D02*
X16536492Y-14545722D01*
X16536492Y-14545722D02*
X16536492Y-14564769D01*
X16536492Y-14564769D02*
X16441253Y-14583817D01*
X16707920Y-14650484D02*
X16707920Y-14450484D01*
X16707920Y-14640960D02*
X16688873Y-14650484D01*
X16688873Y-14650484D02*
X16650777Y-14650484D01*
X16650777Y-14650484D02*
X16631730Y-14640960D01*
X16631730Y-14640960D02*
X16622206Y-14631436D01*
X16622206Y-14631436D02*
X16612682Y-14612388D01*
X16612682Y-14612388D02*
X16612682Y-14555246D01*
X16612682Y-14555246D02*
X16622206Y-14536198D01*
X16622206Y-14536198D02*
X16631730Y-14526674D01*
X16631730Y-14526674D02*
X16650777Y-14517150D01*
X16650777Y-14517150D02*
X16688873Y-14517150D01*
X16688873Y-14517150D02*
X16707920Y-14526674D01*
X16784111Y-14726674D02*
X16793635Y-14717150D01*
X16793635Y-14717150D02*
X16812682Y-14688579D01*
X16812682Y-14688579D02*
X16822206Y-14669531D01*
X16822206Y-14669531D02*
X16831730Y-14640960D01*
X16831730Y-14640960D02*
X16841254Y-14593341D01*
X16841254Y-14593341D02*
X16841254Y-14555246D01*
X16841254Y-14555246D02*
X16831730Y-14507627D01*
X16831730Y-14507627D02*
X16822206Y-14479055D01*
X16822206Y-14479055D02*
X16812682Y-14460008D01*
X16812682Y-14460008D02*
X16793635Y-14431436D01*
X16793635Y-14431436D02*
X16784111Y-14421912D01*
X10090000Y-14723000D02*
X10090000Y-14923000D01*
X9990000Y-14823000D02*
X10190000Y-14823000D01*
X10431729Y-14714484D02*
X10555539Y-14714484D01*
X10555539Y-14714484D02*
X10488872Y-14790674D01*
X10488872Y-14790674D02*
X10517444Y-14790674D01*
X10517444Y-14790674D02*
X10536491Y-14800198D01*
X10536491Y-14800198D02*
X10546015Y-14809722D01*
X10546015Y-14809722D02*
X10555539Y-14828769D01*
X10555539Y-14828769D02*
X10555539Y-14876388D01*
X10555539Y-14876388D02*
X10546015Y-14895436D01*
X10546015Y-14895436D02*
X10536491Y-14904960D01*
X10536491Y-14904960D02*
X10517444Y-14914484D01*
X10517444Y-14914484D02*
X10460301Y-14914484D01*
X10460301Y-14914484D02*
X10441253Y-14904960D01*
X10441253Y-14904960D02*
X10431729Y-14895436D01*
X10641253Y-14895436D02*
X10650777Y-14904960D01*
X10650777Y-14904960D02*
X10641253Y-14914484D01*
X10641253Y-14914484D02*
X10631729Y-14904960D01*
X10631729Y-14904960D02*
X10641253Y-14895436D01*
X10641253Y-14895436D02*
X10641253Y-14914484D01*
X10831729Y-14714484D02*
X10736491Y-14714484D01*
X10736491Y-14714484D02*
X10726967Y-14809722D01*
X10726967Y-14809722D02*
X10736491Y-14800198D01*
X10736491Y-14800198D02*
X10755539Y-14790674D01*
X10755539Y-14790674D02*
X10803158Y-14790674D01*
X10803158Y-14790674D02*
X10822205Y-14800198D01*
X10822205Y-14800198D02*
X10831729Y-14809722D01*
X10831729Y-14809722D02*
X10841253Y-14828769D01*
X10841253Y-14828769D02*
X10841253Y-14876388D01*
X10841253Y-14876388D02*
X10831729Y-14895436D01*
X10831729Y-14895436D02*
X10822205Y-14904960D01*
X10822205Y-14904960D02*
X10803158Y-14914484D01*
X10803158Y-14914484D02*
X10755539Y-14914484D01*
X10755539Y-14914484D02*
X10736491Y-14904960D01*
X10736491Y-14904960D02*
X10726967Y-14895436D01*
X10965063Y-14714484D02*
X10984110Y-14714484D01*
X10984110Y-14714484D02*
X11003158Y-14724008D01*
X11003158Y-14724008D02*
X11012682Y-14733531D01*
X11012682Y-14733531D02*
X11022205Y-14752579D01*
X11022205Y-14752579D02*
X11031729Y-14790674D01*
X11031729Y-14790674D02*
X11031729Y-14838293D01*
X11031729Y-14838293D02*
X11022205Y-14876388D01*
X11022205Y-14876388D02*
X11012682Y-14895436D01*
X11012682Y-14895436D02*
X11003158Y-14904960D01*
X11003158Y-14904960D02*
X10984110Y-14914484D01*
X10984110Y-14914484D02*
X10965063Y-14914484D01*
X10965063Y-14914484D02*
X10946015Y-14904960D01*
X10946015Y-14904960D02*
X10936491Y-14895436D01*
X10936491Y-14895436D02*
X10926967Y-14876388D01*
X10926967Y-14876388D02*
X10917444Y-14838293D01*
X10917444Y-14838293D02*
X10917444Y-14790674D01*
X10917444Y-14790674D02*
X10926967Y-14752579D01*
X10926967Y-14752579D02*
X10936491Y-14733531D01*
X10936491Y-14733531D02*
X10946015Y-14724008D01*
X10946015Y-14724008D02*
X10965063Y-14714484D01*
X11155539Y-14714484D02*
X11174586Y-14714484D01*
X11174586Y-14714484D02*
X11193634Y-14724008D01*
X11193634Y-14724008D02*
X11203158Y-14733531D01*
X11203158Y-14733531D02*
X11212682Y-14752579D01*
X11212682Y-14752579D02*
X11222205Y-14790674D01*
X11222205Y-14790674D02*
X11222205Y-14838293D01*
X11222205Y-14838293D02*
X11212682Y-14876388D01*
X11212682Y-14876388D02*
X11203158Y-14895436D01*
X11203158Y-14895436D02*
X11193634Y-14904960D01*
X11193634Y-14904960D02*
X11174586Y-14914484D01*
X11174586Y-14914484D02*
X11155539Y-14914484D01*
X11155539Y-14914484D02*
X11136491Y-14904960D01*
X11136491Y-14904960D02*
X11126967Y-14895436D01*
X11126967Y-14895436D02*
X11117444Y-14876388D01*
X11117444Y-14876388D02*
X11107920Y-14838293D01*
X11107920Y-14838293D02*
X11107920Y-14790674D01*
X11107920Y-14790674D02*
X11117444Y-14752579D01*
X11117444Y-14752579D02*
X11126967Y-14733531D01*
X11126967Y-14733531D02*
X11136491Y-14724008D01*
X11136491Y-14724008D02*
X11155539Y-14714484D01*
X11307920Y-14914484D02*
X11307920Y-14781150D01*
X11307920Y-14800198D02*
X11317443Y-14790674D01*
X11317443Y-14790674D02*
X11336491Y-14781150D01*
X11336491Y-14781150D02*
X11365063Y-14781150D01*
X11365063Y-14781150D02*
X11384110Y-14790674D01*
X11384110Y-14790674D02*
X11393634Y-14809722D01*
X11393634Y-14809722D02*
X11393634Y-14914484D01*
X11393634Y-14809722D02*
X11403158Y-14790674D01*
X11403158Y-14790674D02*
X11422205Y-14781150D01*
X11422205Y-14781150D02*
X11450777Y-14781150D01*
X11450777Y-14781150D02*
X11469824Y-14790674D01*
X11469824Y-14790674D02*
X11479348Y-14809722D01*
X11479348Y-14809722D02*
X11479348Y-14914484D01*
X11574586Y-14914484D02*
X11574586Y-14781150D01*
X11574586Y-14800198D02*
X11584110Y-14790674D01*
X11584110Y-14790674D02*
X11603158Y-14781150D01*
X11603158Y-14781150D02*
X11631729Y-14781150D01*
X11631729Y-14781150D02*
X11650777Y-14790674D01*
X11650777Y-14790674D02*
X11660301Y-14809722D01*
X11660301Y-14809722D02*
X11660301Y-14914484D01*
X11660301Y-14809722D02*
X11669824Y-14790674D01*
X11669824Y-14790674D02*
X11688872Y-14781150D01*
X11688872Y-14781150D02*
X11717443Y-14781150D01*
X11717443Y-14781150D02*
X11736491Y-14790674D01*
X11736491Y-14790674D02*
X11746015Y-14809722D01*
X11746015Y-14809722D02*
X11746015Y-14914484D01*
X12136491Y-14704960D02*
X11965063Y-14962103D01*
X12393634Y-14714484D02*
X12412682Y-14714484D01*
X12412682Y-14714484D02*
X12431729Y-14724008D01*
X12431729Y-14724008D02*
X12441253Y-14733531D01*
X12441253Y-14733531D02*
X12450777Y-14752579D01*
X12450777Y-14752579D02*
X12460301Y-14790674D01*
X12460301Y-14790674D02*
X12460301Y-14838293D01*
X12460301Y-14838293D02*
X12450777Y-14876388D01*
X12450777Y-14876388D02*
X12441253Y-14895436D01*
X12441253Y-14895436D02*
X12431729Y-14904960D01*
X12431729Y-14904960D02*
X12412682Y-14914484D01*
X12412682Y-14914484D02*
X12393634Y-14914484D01*
X12393634Y-14914484D02*
X12374586Y-14904960D01*
X12374586Y-14904960D02*
X12365063Y-14895436D01*
X12365063Y-14895436D02*
X12355539Y-14876388D01*
X12355539Y-14876388D02*
X12346015Y-14838293D01*
X12346015Y-14838293D02*
X12346015Y-14790674D01*
X12346015Y-14790674D02*
X12355539Y-14752579D01*
X12355539Y-14752579D02*
X12365063Y-14733531D01*
X12365063Y-14733531D02*
X12374586Y-14724008D01*
X12374586Y-14724008D02*
X12393634Y-14714484D01*
X12546015Y-14895436D02*
X12555539Y-14904960D01*
X12555539Y-14904960D02*
X12546015Y-14914484D01*
X12546015Y-14914484D02*
X12536491Y-14904960D01*
X12536491Y-14904960D02*
X12546015Y-14895436D01*
X12546015Y-14895436D02*
X12546015Y-14914484D01*
X12746015Y-14914484D02*
X12631729Y-14914484D01*
X12688872Y-14914484D02*
X12688872Y-14714484D01*
X12688872Y-14714484D02*
X12669825Y-14743055D01*
X12669825Y-14743055D02*
X12650777Y-14762103D01*
X12650777Y-14762103D02*
X12631729Y-14771627D01*
X12812682Y-14714484D02*
X12936491Y-14714484D01*
X12936491Y-14714484D02*
X12869825Y-14790674D01*
X12869825Y-14790674D02*
X12898396Y-14790674D01*
X12898396Y-14790674D02*
X12917444Y-14800198D01*
X12917444Y-14800198D02*
X12926967Y-14809722D01*
X12926967Y-14809722D02*
X12936491Y-14828769D01*
X12936491Y-14828769D02*
X12936491Y-14876388D01*
X12936491Y-14876388D02*
X12926967Y-14895436D01*
X12926967Y-14895436D02*
X12917444Y-14904960D01*
X12917444Y-14904960D02*
X12898396Y-14914484D01*
X12898396Y-14914484D02*
X12841253Y-14914484D01*
X12841253Y-14914484D02*
X12822206Y-14904960D01*
X12822206Y-14904960D02*
X12812682Y-14895436D01*
X13003158Y-14714484D02*
X13136491Y-14714484D01*
X13136491Y-14714484D02*
X13050777Y-14914484D01*
X13241253Y-14800198D02*
X13222206Y-14790674D01*
X13222206Y-14790674D02*
X13212682Y-14781150D01*
X13212682Y-14781150D02*
X13203158Y-14762103D01*
X13203158Y-14762103D02*
X13203158Y-14752579D01*
X13203158Y-14752579D02*
X13212682Y-14733531D01*
X13212682Y-14733531D02*
X13222206Y-14724008D01*
X13222206Y-14724008D02*
X13241253Y-14714484D01*
X13241253Y-14714484D02*
X13279348Y-14714484D01*
X13279348Y-14714484D02*
X13298396Y-14724008D01*
X13298396Y-14724008D02*
X13307920Y-14733531D01*
X13307920Y-14733531D02*
X13317444Y-14752579D01*
X13317444Y-14752579D02*
X13317444Y-14762103D01*
X13317444Y-14762103D02*
X13307920Y-14781150D01*
X13307920Y-14781150D02*
X13298396Y-14790674D01*
X13298396Y-14790674D02*
X13279348Y-14800198D01*
X13279348Y-14800198D02*
X13241253Y-14800198D01*
X13241253Y-14800198D02*
X13222206Y-14809722D01*
X13222206Y-14809722D02*
X13212682Y-14819246D01*
X13212682Y-14819246D02*
X13203158Y-14838293D01*
X13203158Y-14838293D02*
X13203158Y-14876388D01*
X13203158Y-14876388D02*
X13212682Y-14895436D01*
X13212682Y-14895436D02*
X13222206Y-14904960D01*
X13222206Y-14904960D02*
X13241253Y-14914484D01*
X13241253Y-14914484D02*
X13279348Y-14914484D01*
X13279348Y-14914484D02*
X13298396Y-14904960D01*
X13298396Y-14904960D02*
X13307920Y-14895436D01*
X13307920Y-14895436D02*
X13317444Y-14876388D01*
X13317444Y-14876388D02*
X13317444Y-14838293D01*
X13317444Y-14838293D02*
X13307920Y-14819246D01*
X13307920Y-14819246D02*
X13298396Y-14809722D01*
X13298396Y-14809722D02*
X13279348Y-14800198D01*
X13393634Y-14714484D02*
X13393634Y-14752579D01*
X13469825Y-14714484D02*
X13469825Y-14752579D01*
X13765063Y-14990674D02*
X13755539Y-14981150D01*
X13755539Y-14981150D02*
X13736491Y-14952579D01*
X13736491Y-14952579D02*
X13726968Y-14933531D01*
X13726968Y-14933531D02*
X13717444Y-14904960D01*
X13717444Y-14904960D02*
X13707920Y-14857341D01*
X13707920Y-14857341D02*
X13707920Y-14819246D01*
X13707920Y-14819246D02*
X13717444Y-14771627D01*
X13717444Y-14771627D02*
X13726968Y-14743055D01*
X13726968Y-14743055D02*
X13736491Y-14724008D01*
X13736491Y-14724008D02*
X13755539Y-14695436D01*
X13755539Y-14695436D02*
X13765063Y-14685912D01*
X13831729Y-14733531D02*
X13841253Y-14724008D01*
X13841253Y-14724008D02*
X13860301Y-14714484D01*
X13860301Y-14714484D02*
X13907920Y-14714484D01*
X13907920Y-14714484D02*
X13926968Y-14724008D01*
X13926968Y-14724008D02*
X13936491Y-14733531D01*
X13936491Y-14733531D02*
X13946015Y-14752579D01*
X13946015Y-14752579D02*
X13946015Y-14771627D01*
X13946015Y-14771627D02*
X13936491Y-14800198D01*
X13936491Y-14800198D02*
X13822206Y-14914484D01*
X13822206Y-14914484D02*
X13946015Y-14914484D01*
X14184110Y-14914484D02*
X14184110Y-14714484D01*
X14269825Y-14914484D02*
X14269825Y-14809722D01*
X14269825Y-14809722D02*
X14260301Y-14790674D01*
X14260301Y-14790674D02*
X14241253Y-14781150D01*
X14241253Y-14781150D02*
X14212682Y-14781150D01*
X14212682Y-14781150D02*
X14193634Y-14790674D01*
X14193634Y-14790674D02*
X14184110Y-14800198D01*
X14393634Y-14914484D02*
X14374587Y-14904960D01*
X14374587Y-14904960D02*
X14365063Y-14895436D01*
X14365063Y-14895436D02*
X14355539Y-14876388D01*
X14355539Y-14876388D02*
X14355539Y-14819246D01*
X14355539Y-14819246D02*
X14365063Y-14800198D01*
X14365063Y-14800198D02*
X14374587Y-14790674D01*
X14374587Y-14790674D02*
X14393634Y-14781150D01*
X14393634Y-14781150D02*
X14422206Y-14781150D01*
X14422206Y-14781150D02*
X14441253Y-14790674D01*
X14441253Y-14790674D02*
X14450777Y-14800198D01*
X14450777Y-14800198D02*
X14460301Y-14819246D01*
X14460301Y-14819246D02*
X14460301Y-14876388D01*
X14460301Y-14876388D02*
X14450777Y-14895436D01*
X14450777Y-14895436D02*
X14441253Y-14904960D01*
X14441253Y-14904960D02*
X14422206Y-14914484D01*
X14422206Y-14914484D02*
X14393634Y-14914484D01*
X14574587Y-14914484D02*
X14555539Y-14904960D01*
X14555539Y-14904960D02*
X14546015Y-14885912D01*
X14546015Y-14885912D02*
X14546015Y-14714484D01*
X14726968Y-14904960D02*
X14707920Y-14914484D01*
X14707920Y-14914484D02*
X14669825Y-14914484D01*
X14669825Y-14914484D02*
X14650777Y-14904960D01*
X14650777Y-14904960D02*
X14641253Y-14885912D01*
X14641253Y-14885912D02*
X14641253Y-14809722D01*
X14641253Y-14809722D02*
X14650777Y-14790674D01*
X14650777Y-14790674D02*
X14669825Y-14781150D01*
X14669825Y-14781150D02*
X14707920Y-14781150D01*
X14707920Y-14781150D02*
X14726968Y-14790674D01*
X14726968Y-14790674D02*
X14736491Y-14809722D01*
X14736491Y-14809722D02*
X14736491Y-14828769D01*
X14736491Y-14828769D02*
X14641253Y-14847817D01*
X14812682Y-14904960D02*
X14831730Y-14914484D01*
X14831730Y-14914484D02*
X14869825Y-14914484D01*
X14869825Y-14914484D02*
X14888872Y-14904960D01*
X14888872Y-14904960D02*
X14898396Y-14885912D01*
X14898396Y-14885912D02*
X14898396Y-14876388D01*
X14898396Y-14876388D02*
X14888872Y-14857341D01*
X14888872Y-14857341D02*
X14869825Y-14847817D01*
X14869825Y-14847817D02*
X14841253Y-14847817D01*
X14841253Y-14847817D02*
X14822206Y-14838293D01*
X14822206Y-14838293D02*
X14812682Y-14819246D01*
X14812682Y-14819246D02*
X14812682Y-14809722D01*
X14812682Y-14809722D02*
X14822206Y-14790674D01*
X14822206Y-14790674D02*
X14841253Y-14781150D01*
X14841253Y-14781150D02*
X14869825Y-14781150D01*
X14869825Y-14781150D02*
X14888872Y-14790674D01*
X14965063Y-14990674D02*
X14974587Y-14981150D01*
X14974587Y-14981150D02*
X14993634Y-14952579D01*
X14993634Y-14952579D02*
X15003158Y-14933531D01*
X15003158Y-14933531D02*
X15012682Y-14904960D01*
X15012682Y-14904960D02*
X15022206Y-14857341D01*
X15022206Y-14857341D02*
X15022206Y-14819246D01*
X15022206Y-14819246D02*
X15012682Y-14771627D01*
X15012682Y-14771627D02*
X15003158Y-14743055D01*
X15003158Y-14743055D02*
X14993634Y-14724008D01*
X14993634Y-14724008D02*
X14974587Y-14695436D01*
X14974587Y-14695436D02*
X14965063Y-14685912D01*
X15326968Y-14990674D02*
X15317444Y-14981150D01*
X15317444Y-14981150D02*
X15298396Y-14952579D01*
X15298396Y-14952579D02*
X15288872Y-14933531D01*
X15288872Y-14933531D02*
X15279349Y-14904960D01*
X15279349Y-14904960D02*
X15269825Y-14857341D01*
X15269825Y-14857341D02*
X15269825Y-14819246D01*
X15269825Y-14819246D02*
X15279349Y-14771627D01*
X15279349Y-14771627D02*
X15288872Y-14743055D01*
X15288872Y-14743055D02*
X15298396Y-14724008D01*
X15298396Y-14724008D02*
X15317444Y-14695436D01*
X15317444Y-14695436D02*
X15326968Y-14685912D01*
X15403158Y-14781150D02*
X15403158Y-14914484D01*
X15403158Y-14800198D02*
X15412682Y-14790674D01*
X15412682Y-14790674D02*
X15431730Y-14781150D01*
X15431730Y-14781150D02*
X15460301Y-14781150D01*
X15460301Y-14781150D02*
X15479349Y-14790674D01*
X15479349Y-14790674D02*
X15488872Y-14809722D01*
X15488872Y-14809722D02*
X15488872Y-14914484D01*
X15612682Y-14914484D02*
X15593634Y-14904960D01*
X15593634Y-14904960D02*
X15584111Y-14895436D01*
X15584111Y-14895436D02*
X15574587Y-14876388D01*
X15574587Y-14876388D02*
X15574587Y-14819246D01*
X15574587Y-14819246D02*
X15584111Y-14800198D01*
X15584111Y-14800198D02*
X15593634Y-14790674D01*
X15593634Y-14790674D02*
X15612682Y-14781150D01*
X15612682Y-14781150D02*
X15641253Y-14781150D01*
X15641253Y-14781150D02*
X15660301Y-14790674D01*
X15660301Y-14790674D02*
X15669825Y-14800198D01*
X15669825Y-14800198D02*
X15679349Y-14819246D01*
X15679349Y-14819246D02*
X15679349Y-14876388D01*
X15679349Y-14876388D02*
X15669825Y-14895436D01*
X15669825Y-14895436D02*
X15660301Y-14904960D01*
X15660301Y-14904960D02*
X15641253Y-14914484D01*
X15641253Y-14914484D02*
X15612682Y-14914484D01*
X15736492Y-14781150D02*
X15812682Y-14781150D01*
X15765063Y-14714484D02*
X15765063Y-14885912D01*
X15765063Y-14885912D02*
X15774587Y-14904960D01*
X15774587Y-14904960D02*
X15793634Y-14914484D01*
X15793634Y-14914484D02*
X15812682Y-14914484D01*
X16031730Y-14781150D02*
X16031730Y-14981150D01*
X16031730Y-14790674D02*
X16050777Y-14781150D01*
X16050777Y-14781150D02*
X16088873Y-14781150D01*
X16088873Y-14781150D02*
X16107920Y-14790674D01*
X16107920Y-14790674D02*
X16117444Y-14800198D01*
X16117444Y-14800198D02*
X16126968Y-14819246D01*
X16126968Y-14819246D02*
X16126968Y-14876388D01*
X16126968Y-14876388D02*
X16117444Y-14895436D01*
X16117444Y-14895436D02*
X16107920Y-14904960D01*
X16107920Y-14904960D02*
X16088873Y-14914484D01*
X16088873Y-14914484D02*
X16050777Y-14914484D01*
X16050777Y-14914484D02*
X16031730Y-14904960D01*
X16241253Y-14914484D02*
X16222206Y-14904960D01*
X16222206Y-14904960D02*
X16212682Y-14885912D01*
X16212682Y-14885912D02*
X16212682Y-14714484D01*
X16403158Y-14914484D02*
X16403158Y-14809722D01*
X16403158Y-14809722D02*
X16393634Y-14790674D01*
X16393634Y-14790674D02*
X16374587Y-14781150D01*
X16374587Y-14781150D02*
X16336492Y-14781150D01*
X16336492Y-14781150D02*
X16317444Y-14790674D01*
X16403158Y-14904960D02*
X16384111Y-14914484D01*
X16384111Y-14914484D02*
X16336492Y-14914484D01*
X16336492Y-14914484D02*
X16317444Y-14904960D01*
X16317444Y-14904960D02*
X16307920Y-14885912D01*
X16307920Y-14885912D02*
X16307920Y-14866865D01*
X16307920Y-14866865D02*
X16317444Y-14847817D01*
X16317444Y-14847817D02*
X16336492Y-14838293D01*
X16336492Y-14838293D02*
X16384111Y-14838293D01*
X16384111Y-14838293D02*
X16403158Y-14828769D01*
X16469825Y-14781150D02*
X16546015Y-14781150D01*
X16498396Y-14714484D02*
X16498396Y-14885912D01*
X16498396Y-14885912D02*
X16507920Y-14904960D01*
X16507920Y-14904960D02*
X16526968Y-14914484D01*
X16526968Y-14914484D02*
X16546015Y-14914484D01*
X16688873Y-14904960D02*
X16669825Y-14914484D01*
X16669825Y-14914484D02*
X16631730Y-14914484D01*
X16631730Y-14914484D02*
X16612682Y-14904960D01*
X16612682Y-14904960D02*
X16603158Y-14885912D01*
X16603158Y-14885912D02*
X16603158Y-14809722D01*
X16603158Y-14809722D02*
X16612682Y-14790674D01*
X16612682Y-14790674D02*
X16631730Y-14781150D01*
X16631730Y-14781150D02*
X16669825Y-14781150D01*
X16669825Y-14781150D02*
X16688873Y-14790674D01*
X16688873Y-14790674D02*
X16698396Y-14809722D01*
X16698396Y-14809722D02*
X16698396Y-14828769D01*
X16698396Y-14828769D02*
X16603158Y-14847817D01*
X16869825Y-14914484D02*
X16869825Y-14714484D01*
X16869825Y-14904960D02*
X16850777Y-14914484D01*
X16850777Y-14914484D02*
X16812682Y-14914484D01*
X16812682Y-14914484D02*
X16793635Y-14904960D01*
X16793635Y-14904960D02*
X16784111Y-14895436D01*
X16784111Y-14895436D02*
X16774587Y-14876388D01*
X16774587Y-14876388D02*
X16774587Y-14819246D01*
X16774587Y-14819246D02*
X16784111Y-14800198D01*
X16784111Y-14800198D02*
X16793635Y-14790674D01*
X16793635Y-14790674D02*
X16812682Y-14781150D01*
X16812682Y-14781150D02*
X16850777Y-14781150D01*
X16850777Y-14781150D02*
X16869825Y-14790674D01*
X16946016Y-14990674D02*
X16955539Y-14981150D01*
X16955539Y-14981150D02*
X16974587Y-14952579D01*
X16974587Y-14952579D02*
X16984111Y-14933531D01*
X16984111Y-14933531D02*
X16993635Y-14904960D01*
X16993635Y-14904960D02*
X17003158Y-14857341D01*
X17003158Y-14857341D02*
X17003158Y-14819246D01*
X17003158Y-14819246D02*
X16993635Y-14771627D01*
X16993635Y-14771627D02*
X16984111Y-14743055D01*
X16984111Y-14743055D02*
X16974587Y-14724008D01*
X16974587Y-14724008D02*
X16955539Y-14695436D01*
X16955539Y-14695436D02*
X16946016Y-14685912D01*
M02*
