M48
; DRILL file {KiCad 9.0.8-9.0.8~ubuntu24.04.1} date 2026-03-24T20:26:18+0200
; FORMAT={-:-/ absolute / metric / decimal}
; #@! TF.CreationDate,2026-03-24T20:26:18+02:00
; #@! TF.GenerationSoftware,Kicad,Pcbnew,9.0.8-9.0.8~ubuntu24.04.1
; #@! TF.FileFunction,Plated,1,2,PTH
FMAT,2
METRIC
; #@! TA.AperFunction,Plated,PTH,ViaDrill
T1C0.300
; #@! TA.AperFunction,Plated,PTH,ComponentDrill
T2C0.700
; #@! TA.AperFunction,Plated,PTH,ComponentDrill
T3C0.800
; #@! TA.AperFunction,Plated,PTH,ComponentDrill
T4C0.950
; #@! TA.AperFunction,Plated,PTH,ComponentDrill
T5C1.000
; #@! TA.AperFunction,Plated,PTH,ComponentDrill
T6C1.016
; #@! TA.AperFunction,Plated,PTH,ComponentDrill
T7C1.100
; #@! TA.AperFunction,Plated,PTH,ComponentDrill
T8C1.200
; #@! TA.AperFunction,Plated,PTH,ComponentDrill
T9C1.500
; #@! TA.AperFunction,Plated,PTH,ComponentDrill
T10C3.200
%
G90
G05
T1
X103.3Y-134.9
X103.5Y-106.3
X103.5Y-107.1
X103.5Y-108.55
X103.55Y-107.85
X103.95Y-76.9
X104.0Y-71.95
X104.0Y-73.6
X104.0Y-75.25
X104.0Y-76.0
X104.05Y-68.65
X104.05Y-70.3
X104.05Y-71.05
X104.05Y-72.7
X104.05Y-74.35
X104.1Y-67.75
X104.1Y-69.4
X104.25Y-106.75
X104.25Y-107.45
X104.25Y-108.2
X104.5Y-63.1
X104.5Y-64.1
X104.5Y-65.1
X104.5Y-66.1
X104.5Y-67.1
X104.9Y-135.429
X104.95Y-76.9
X105.0Y-71.95
X105.0Y-73.6
X105.0Y-75.25
X105.0Y-76.0
X105.05Y-68.65
X105.05Y-70.3
X105.05Y-71.05
X105.05Y-72.7
X105.05Y-74.35
X105.1Y-67.75
X105.1Y-69.4
X105.55Y-63.05
X105.55Y-64.05
X105.55Y-65.05
X105.55Y-66.05
X105.55Y-67.05
X105.95Y-76.9
X106.0Y-71.95
X106.0Y-73.6
X106.0Y-75.25
X106.0Y-76.0
X106.05Y-68.65
X106.05Y-70.3
X106.05Y-71.05
X106.05Y-72.7
X106.05Y-74.35
X106.1Y-67.75
X106.1Y-69.4
X106.5Y-134.9
X106.65Y-63.05
X106.65Y-64.05
X106.65Y-65.05
X106.65Y-66.05
X106.65Y-67.05
X106.67Y-89.5
X106.95Y-76.9
X107.0Y-71.95
X107.0Y-73.6
X107.0Y-75.25
X107.0Y-76.0
X107.05Y-68.65
X107.05Y-70.3
X107.05Y-71.05
X107.05Y-72.7
X107.05Y-74.35
X107.1Y-67.75
X107.1Y-69.4
X107.35Y-107.7
X107.6Y-106.7
X107.7Y-130.35
X107.85Y-108.3
X107.95Y-76.9
X108.0Y-71.95
X108.0Y-73.6
X108.0Y-75.25
X108.0Y-76.0
X108.05Y-68.65
X108.05Y-70.3
X108.05Y-71.05
X108.05Y-72.7
X108.05Y-74.35
X108.1Y-67.75
X108.1Y-69.4
X108.1Y-135.429
X108.15Y-107.25
X108.45Y-108.7
X108.7Y-107.8
X108.95Y-76.9
X109.0Y-71.95
X109.0Y-73.6
X109.0Y-75.25
X109.0Y-76.0
X109.05Y-68.65
X109.05Y-70.3
X109.05Y-71.05
X109.05Y-72.7
X109.05Y-74.35
X109.1Y-67.75
X109.1Y-69.4
X109.4Y-108.45
X109.443Y-129.154
X109.7Y-134.9
X109.8Y-101.4
X109.9Y-118.8
X109.95Y-76.9
X110.0Y-71.95
X110.0Y-73.6
X110.0Y-75.25
X110.0Y-76.0
X110.0Y-113.1
X110.05Y-68.65
X110.05Y-70.3
X110.05Y-71.05
X110.05Y-72.7
X110.05Y-74.35
X110.1Y-67.75
X110.1Y-69.4
X110.3Y-47.671
X110.329Y-100.6
X110.329Y-102.2
X110.35Y-38.45
X110.5Y-52.621
X110.7Y-50.021
X110.75Y-40.8
X110.9Y-54.971
X110.95Y-76.9
X111.0Y-71.95
X111.0Y-73.6
X111.0Y-75.25
X111.0Y-76.0
X111.05Y-68.65
X111.05Y-70.3
X111.05Y-71.05
X111.05Y-72.7
X111.05Y-74.35
X111.1Y-67.75
X111.1Y-69.4
X111.3Y-135.429
X111.4Y-63.1
X111.4Y-64.1
X111.4Y-65.1
X111.4Y-66.1
X111.4Y-67.1
X111.45Y-114.5
X111.45Y-117.55
X111.6Y-100.6
X111.6Y-102.2
X111.95Y-76.9
X112.0Y-71.95
X112.0Y-73.6
X112.0Y-75.25
X112.0Y-76.0
X112.05Y-68.65
X112.05Y-70.3
X112.05Y-71.05
X112.05Y-72.7
X112.05Y-74.35
X112.1Y-67.75
X112.1Y-69.4
X112.129Y-101.4
X112.45Y-63.05
X112.45Y-64.05
X112.45Y-65.05
X112.45Y-66.05
X112.45Y-67.05
X112.9Y-134.9
X112.95Y-76.9
X113.0Y-71.95
X113.0Y-73.6
X113.0Y-75.25
X113.0Y-76.0
X113.05Y-68.65
X113.05Y-70.3
X113.05Y-71.05
X113.05Y-72.7
X113.05Y-74.35
X113.05Y-116.2
X113.1Y-67.75
X113.1Y-69.4
X113.2Y-118.8
X113.4Y-48.2
X113.45Y-38.979
X113.5Y-107.6
X113.55Y-63.05
X113.55Y-64.05
X113.55Y-65.05
X113.55Y-66.05
X113.55Y-67.05
X113.6Y-53.15
X113.8Y-50.55
X113.85Y-41.329
X113.95Y-76.9
X114.0Y-55.5
X114.0Y-71.95
X114.0Y-73.6
X114.0Y-75.25
X114.0Y-76.0
X114.029Y-106.8
X114.029Y-108.4
X114.05Y-68.65
X114.05Y-70.3
X114.05Y-71.05
X114.05Y-72.7
X114.05Y-74.35
X114.1Y-67.75
X114.1Y-69.4
X114.5Y-135.429
X114.75Y-117.55
X115.3Y-106.8
X115.3Y-108.4
X115.829Y-107.6
X116.1Y-134.9
X116.125Y-126.825
X116.5Y-47.671
X116.5Y-118.8
X116.55Y-38.45
X116.575Y-128.925
X116.7Y-52.621
X116.9Y-50.021
X116.95Y-40.8
X117.1Y-54.971
X117.2Y-131.55
X117.7Y-135.429
X117.9Y-130.727
X119.3Y-134.9
X119.6Y-48.2
X119.65Y-38.979
X119.8Y-53.15
X119.9Y-103.25
X119.9Y-106.55
X119.9Y-107.7
X119.95Y-102.45
X120.0Y-50.55
X120.05Y-41.329
X120.2Y-55.5
X120.75Y-106.55
X120.75Y-107.75
X120.9Y-135.429
X121.0Y-84.55
X121.0Y-87.1
X121.05Y-82.9
X121.05Y-83.65
X121.05Y-85.45
X121.05Y-86.2
X121.5Y-79.15
X121.5Y-80.15
X121.5Y-81.15
X121.5Y-82.15
X121.7Y-102.4
X121.7Y-103.3
X121.7Y-106.55
X121.7Y-107.75
X122.0Y-84.55
X122.0Y-87.1
X122.05Y-82.9
X122.05Y-83.65
X122.05Y-85.45
X122.05Y-86.2
X122.1Y-89.5
X122.5Y-134.9
X122.55Y-79.1
X122.55Y-80.1
X122.55Y-81.1
X122.55Y-82.1
X122.7Y-47.671
X122.75Y-38.45
X122.75Y-116.9
X122.9Y-52.621
X123.0Y-84.55
X123.0Y-87.1
X123.05Y-82.9
X123.05Y-83.65
X123.05Y-85.45
X123.05Y-86.2
X123.1Y-50.021
X123.1Y-88.15
X123.1Y-88.9
X123.15Y-40.8
X123.3Y-54.971
X123.65Y-79.1
X123.65Y-80.1
X123.65Y-81.1
X123.65Y-82.1
X123.7Y-118.3
X124.0Y-84.55
X124.0Y-87.1
X124.05Y-82.9
X124.05Y-83.65
X124.05Y-85.45
X124.05Y-86.2
X124.05Y-89.8
X124.1Y-88.15
X124.1Y-88.9
X124.1Y-135.429
X125.0Y-84.55
X125.0Y-87.1
X125.05Y-82.9
X125.05Y-83.65
X125.05Y-85.45
X125.05Y-86.2
X125.05Y-89.8
X125.05Y-90.7
X125.1Y-88.15
X125.1Y-88.9
X125.3Y-107.7
X125.6Y-118.9
X125.7Y-134.9
X125.8Y-48.2
X125.85Y-38.979
X126.0Y-53.15
X126.0Y-84.55
X126.0Y-87.1
X126.05Y-82.9
X126.05Y-83.65
X126.05Y-85.45
X126.05Y-86.2
X126.05Y-89.8
X126.05Y-90.7
X126.05Y-91.45
X126.1Y-88.15
X126.1Y-88.9
X126.1Y-109.5
X126.1Y-111.3
X126.1Y-112.15
X126.2Y-50.55
X126.25Y-41.329
X126.4Y-55.5
X126.5Y-107.7
X126.85Y-115.55
X127.0Y-84.55
X127.0Y-87.1
X127.0Y-92.35
X127.05Y-82.9
X127.05Y-83.65
X127.05Y-85.45
X127.05Y-86.2
X127.05Y-89.8
X127.05Y-90.7
X127.05Y-91.45
X127.1Y-88.15
X127.1Y-88.9
X127.3Y-109.5
X127.3Y-111.3
X127.3Y-112.15
X127.3Y-135.429
X127.7Y-107.7
X127.8Y-115.55
X128.0Y-84.55
X128.0Y-87.1
X128.0Y-92.35
X128.05Y-82.9
X128.05Y-83.65
X128.05Y-85.45
X128.05Y-86.2
X128.05Y-89.8
X128.05Y-90.7
X128.05Y-91.45
X128.1Y-88.15
X128.1Y-88.9
X128.5Y-109.5
X128.5Y-111.3
X128.5Y-112.15
X128.6Y-115.55
X128.85Y-79.05
X128.85Y-80.05
X128.85Y-81.05
X128.85Y-82.05
X128.9Y-47.671
X128.9Y-134.9
X128.95Y-38.45
X129.0Y-84.55
X129.0Y-87.1
X129.0Y-92.35
X129.05Y-82.9
X129.05Y-83.65
X129.05Y-85.45
X129.05Y-86.2
X129.05Y-89.8
X129.05Y-90.7
X129.05Y-91.45
X129.1Y-52.621
X129.1Y-88.15
X129.1Y-88.9
X129.3Y-50.021
X129.35Y-40.8
X129.5Y-54.971
X129.7Y-111.3
X129.7Y-112.15
X129.7Y-116.6
X129.9Y-79.0
X129.9Y-80.0
X129.9Y-81.0
X129.9Y-82.0
X130.0Y-84.55
X130.0Y-87.1
X130.0Y-92.35
X130.05Y-82.9
X130.05Y-83.65
X130.05Y-85.45
X130.05Y-86.2
X130.05Y-89.8
X130.05Y-90.7
X130.05Y-91.45
X130.1Y-88.15
X130.1Y-88.9
X130.2Y-75.8
X130.5Y-135.429
X130.75Y-111.3
X130.75Y-112.15
X131.0Y-79.0
X131.0Y-80.0
X131.0Y-81.0
X131.0Y-82.0
X131.0Y-84.55
X131.0Y-87.1
X131.0Y-92.35
X131.05Y-82.9
X131.05Y-83.65
X131.05Y-85.45
X131.05Y-86.2
X131.05Y-89.8
X131.05Y-90.7
X131.05Y-91.45
X131.1Y-88.15
X131.1Y-88.9
X131.4Y-63.4
X131.4Y-64.2
X131.4Y-65.0
X131.4Y-65.8
X131.5Y-73.4
X132.0Y-48.2
X132.05Y-38.979
X132.1Y-134.9
X132.2Y-53.15
X132.25Y-92.95
X132.3Y-103.3
X132.4Y-50.55
X132.45Y-41.329
X132.6Y-55.5
X132.7Y-104.4
X132.725Y-92.425
X133.1Y-103.3
X133.25Y-91.9
X133.5Y-104.4
X133.6Y-95.1
X133.7Y-93.5
X133.7Y-94.4
X133.7Y-135.429
X133.725Y-91.425
X133.9Y-103.3
X134.3Y-104.4
X134.5Y-82.9
X134.6Y-85.1
X134.7Y-103.3
X135.1Y-104.4
X135.3Y-57.4
X135.3Y-134.9
X135.4Y-73.2
X135.5Y-68.3
X135.5Y-103.3
X135.5Y-116.7
X135.8Y-58.0
X135.9Y-104.4
X136.029Y-67.5
X136.029Y-69.1
X136.2Y-73.9
X136.2Y-83.9
X136.2Y-97.5
X136.3Y-103.3
X136.7Y-104.4
X136.9Y-135.429
X137.1Y-103.3
X137.3Y-67.5
X137.3Y-69.1
X137.3Y-74.4
X137.5Y-104.4
X137.829Y-68.3
X137.9Y-103.3
X138.3Y-104.4
X138.5Y-74.6
X138.5Y-134.9
X138.7Y-103.3
X138.8Y-97.6
X139.071Y-62.2
X139.1Y-72.4
X139.1Y-104.4
X139.5Y-69.7
X139.5Y-74.7
X139.5Y-92.8
X139.5Y-103.3
X139.6Y-61.4
X139.6Y-63.0
X139.9Y-70.5
X139.9Y-104.4
X140.0Y-72.3
X140.1Y-135.429
X140.3Y-103.3
X140.4Y-71.5
X140.4Y-74.7
X140.7Y-94.5
X140.7Y-95.9
X140.7Y-104.4
X140.8Y-72.2
X140.871Y-61.4
X140.871Y-63.0
X141.1Y-90.5
X141.2Y-57.4
X141.371Y-68.3
X141.4Y-62.2
X141.4Y-74.4
X141.571Y-86.1
X141.7Y-134.9
X141.9Y-67.5
X141.9Y-69.1
X142.1Y-85.3
X142.1Y-86.9
X142.4Y-73.9
X143.171Y-67.5
X143.171Y-69.1
X143.2Y-73.3
X143.3Y-135.429
X143.371Y-85.3
X143.371Y-86.9
X143.7Y-68.3
X143.9Y-72.6
X143.9Y-86.1
X144.216Y-92.814
X144.3Y-94.5
X144.3Y-96.1
X144.4Y-71.9
X144.9Y-134.9
X145.3Y-56.3
X146.1Y-89.2
X146.5Y-135.429
X146.7Y-114.3
X146.8Y-115.2
X146.971Y-93.5
X146.971Y-95.1
X147.0Y-116.0
X147.5Y-92.7
X147.5Y-94.3
X147.5Y-95.9
X147.6Y-114.45
X147.6Y-116.8
X147.8Y-115.2
X148.1Y-134.9
X148.3Y-116.0
X148.95Y-116.6
X149.1Y-57.4
X149.7Y-135.429
X150.0Y-43.7
X150.0Y-96.7
X150.8Y-96.171
X151.171Y-89.3
X151.3Y-134.9
X151.4Y-49.2
X151.4Y-50.6
X151.4Y-52.0
X151.6Y-96.7
X151.7Y-88.5
X151.7Y-90.1
X151.929Y-49.9
X151.929Y-51.3
X152.571Y-61.7
X152.671Y-107.1
X152.671Y-108.5
X152.7Y-77.1
X152.9Y-135.429
X152.971Y-88.5
X152.971Y-90.1
X153.1Y-38.7
X153.1Y-60.9
X153.1Y-62.5
X153.2Y-106.4
X153.2Y-107.8
X153.2Y-109.2
X153.5Y-89.3
X154.0Y-75.8
X154.371Y-60.9
X154.371Y-62.5
X154.5Y-134.9
X154.9Y-61.7
X155.0Y-38.1
X155.0Y-77.2
X155.3Y-74.4
X155.9Y-57.5
X156.1Y-135.429
X156.3Y-76.4
X156.4Y-78.4
X156.9Y-73.1
X157.5Y-75.0
X157.6Y-79.2
X157.7Y-134.9
X158.14Y-98.0
X158.5Y-118.2
X158.8Y-73.3
X159.3Y-135.429
X159.5Y-70.0
X159.7Y-95.5
X159.7Y-118.7
X159.7Y-125.0
X159.8Y-97.3
X159.8Y-99.1
X159.84Y-122.61
X160.0Y-61.4
X160.9Y-134.9
X161.4Y-80.4
X161.777Y-106.25
X162.5Y-135.429
X162.7Y-80.0
X162.8Y-92.4
X162.8Y-95.0
X162.8Y-100.2
X162.9Y-97.7
X163.2Y-78.8
X163.9Y-69.9
X163.95Y-91.1
X164.1Y-135.4
X165.5Y-76.1
X165.7Y-59.9
X165.7Y-135.429
X166.0Y-80.3
X166.5Y-86.6
X166.6Y-76.1
X167.27Y-117.56
X167.27Y-120.36
X167.27Y-123.16
X167.55Y-125.4
X167.6Y-63.6
X168.0Y-73.1
X168.1Y-124.85
X168.2Y-61.7
X168.4Y-77.7
X168.595Y-124.355
X168.86Y-92.039
X169.66Y-91.51
X169.7Y-78.4
X170.012Y-110.288
X170.3Y-76.7
X170.46Y-92.039
X171.092Y-113.908
X171.3Y-78.2
X171.3Y-80.5
X171.4Y-104.7
X172.3Y-104.7
X172.8Y-72.3
X173.0Y-77.8
X174.3Y-70.2
X175.3Y-73.0
X175.5Y-78.3
X177.2Y-78.2
X177.3Y-69.8
X177.6Y-74.784
X178.6Y-72.3
X179.1Y-78.2
X179.6Y-119.2
X179.7Y-94.8
X180.3Y-69.9
X180.529Y-74.324
X180.8Y-59.1
X180.8Y-70.6
X181.2Y-69.8
X181.334Y-118.522
X181.5Y-94.8
X181.6Y-73.3
X182.1Y-77.8
X182.9Y-71.9
X183.3Y-94.8
X183.6Y-97.8
X183.9Y-72.9
X184.0Y-77.7
X185.4Y-97.8
X185.5Y-73.2
X185.5Y-75.7
X185.67Y-118.44
X186.13Y-110.29
X186.3Y-85.0
X186.659Y-109.49
X186.659Y-111.09
X187.0Y-54.171
X187.2Y-50.729
X187.2Y-97.8
X187.5Y-72.1
X187.5Y-76.5
X187.8Y-54.7
X187.9Y-71.0
X187.93Y-109.49
X187.93Y-111.09
X188.0Y-50.2
X188.1Y-70.0
X188.3Y-75.971
X188.459Y-110.29
X188.6Y-54.171
X188.8Y-50.729
X189.0Y-97.8
X189.1Y-76.5
X189.2Y-70.0
X189.58Y-121.97
X191.4Y-121.89
X191.78Y-118.52
X192.5Y-71.6
X193.029Y-70.8
X193.029Y-72.4
X194.3Y-70.8
X194.3Y-72.4
X194.829Y-71.6
X196.3Y-52.7
X196.7Y-86.2
X197.271Y-94.5
X197.271Y-96.1
X197.8Y-95.3
X198.7Y-86.5
X199.27Y-122.04
X199.43Y-123.82
X200.6Y-83.8
X200.6Y-84.9
X200.6Y-86.0
X200.76Y-120.98
X200.83Y-123.0
T2
X105.883Y-102.487
X105.883Y-105.027
X105.883Y-107.567
X105.883Y-110.107
X123.7Y-102.52
X123.7Y-105.06
X123.7Y-107.6
X123.7Y-110.14
T3
X104.545Y-91.575
X104.545Y-94.115
X112.165Y-91.575
X112.165Y-94.115
X144.8Y-104.023
X144.8Y-109.023
X147.53Y-67.57
X147.53Y-82.81
X150.07Y-67.57
X150.07Y-82.81
X152.61Y-67.57
X152.61Y-82.81
X155.15Y-67.57
X155.15Y-82.81
X157.69Y-67.57
X157.69Y-82.81
X160.23Y-67.57
X160.23Y-82.81
X162.77Y-67.57
X162.77Y-82.81
X165.31Y-67.57
X165.31Y-82.81
X167.85Y-67.57
X167.85Y-82.81
X170.39Y-67.57
X170.39Y-82.81
X172.93Y-67.57
X172.93Y-82.81
X173.334Y-113.61
X173.334Y-116.15
X173.334Y-118.69
X173.334Y-121.23
X173.334Y-123.77
X173.334Y-126.31
X173.334Y-126.31
X175.47Y-67.57
X175.47Y-82.81
X175.716Y-110.88
X175.716Y-113.42
X175.716Y-115.96
X175.716Y-118.5
X175.716Y-121.04
X175.716Y-123.58
X175.716Y-126.12
X175.716Y-128.66
X178.01Y-67.57
X178.01Y-82.81
X180.55Y-67.57
X180.55Y-82.81
X183.09Y-67.57
X183.09Y-82.81
X185.63Y-67.57
X185.63Y-82.81
X188.17Y-67.57
X188.17Y-82.81
X190.71Y-67.57
X190.71Y-82.81
X193.25Y-67.57
X193.25Y-82.81
X193.75Y-110.88
X193.75Y-113.42
X193.75Y-115.96
X193.75Y-118.5
X193.75Y-121.04
X193.75Y-123.58
X193.75Y-126.12
X193.75Y-128.66
X195.79Y-67.57
X195.79Y-82.81
X196.534Y-113.61
X196.534Y-116.15
X196.534Y-118.69
X196.534Y-121.23
X196.534Y-123.77
X196.534Y-126.31
T4
X137.15Y-40.95
X139.65Y-40.95
X139.65Y-51.44
X142.15Y-40.95
X142.15Y-51.44
X144.65Y-40.95
X144.65Y-51.44
X147.15Y-40.95
X147.15Y-51.44
X149.65Y-40.95
X156.55Y-40.85
X156.75Y-107.42
X156.75Y-109.92
X156.75Y-112.42
X156.75Y-114.92
X159.05Y-40.85
X161.55Y-40.85
X164.05Y-40.85
X166.55Y-40.85
X168.9Y-96.05
X168.9Y-98.55
X168.9Y-101.05
X169.05Y-40.85
X171.55Y-40.85
X176.9Y-93.6
X176.9Y-96.1
X176.9Y-98.6
X176.9Y-101.1
X188.3Y-59.8
X190.8Y-59.8
T5
X109.27Y-121.5
X109.27Y-124.04
X111.81Y-121.5
X111.81Y-124.04
X114.35Y-121.5
X114.35Y-124.04
X116.89Y-121.5
X116.89Y-124.04
X119.43Y-121.5
X119.43Y-124.04
X121.97Y-121.5
X121.97Y-124.04
X124.51Y-121.5
X124.51Y-124.04
X127.05Y-121.5
X127.05Y-124.04
X129.59Y-121.5
X129.59Y-124.04
X132.13Y-121.5
X132.13Y-124.04
X132.33Y-99.757
X132.33Y-112.457
X134.67Y-121.5
X134.67Y-124.04
X134.87Y-99.757
X134.87Y-112.457
X137.21Y-121.5
X137.21Y-124.04
X137.41Y-99.757
X137.41Y-112.457
X139.75Y-121.5
X139.75Y-124.04
X139.95Y-99.757
X139.95Y-112.457
X142.29Y-121.5
X142.29Y-124.04
X142.49Y-99.757
X142.49Y-112.457
X144.83Y-121.5
X144.83Y-124.04
X145.03Y-99.757
X145.03Y-112.457
X147.37Y-121.5
X147.37Y-124.04
X147.57Y-99.757
X147.57Y-112.457
X149.91Y-121.5
X149.91Y-124.04
X150.11Y-99.757
X150.11Y-102.297
X150.11Y-104.837
X150.11Y-112.457
X152.45Y-121.5
X152.45Y-124.04
X154.99Y-121.5
X154.99Y-124.04
X157.53Y-121.5
X157.53Y-124.04
X179.02Y-40.6
X181.56Y-40.6
X184.1Y-40.6
X186.64Y-40.6
X189.18Y-40.6
X191.72Y-40.6
X194.26Y-40.6
X196.8Y-40.6
T6
X185.55Y-91.51
X185.55Y-101.67
X188.09Y-91.51
X188.09Y-101.67
X190.63Y-91.51
X190.63Y-101.67
X193.17Y-91.51
X193.17Y-101.67
X195.71Y-91.51
X195.71Y-101.67
X198.25Y-91.51
X198.25Y-101.67
T7
X103.6Y-86.23
X106.52Y-81.93
X109.06Y-81.93
X111.6Y-81.93
X116.3Y-86.23
T8
X121.14Y-67.19
X121.14Y-72.19
X123.66Y-96.2
X128.74Y-96.2
T9
X117.477Y-45.507
X131.965Y-59.995
T10
X106.3Y-116.2
X106.4Y-41.2
X185.0Y-132.0
X197.3Y-59.9
M30
