G04 #@! TF.GenerationSoftware,KiCad,Pcbnew,9.0.8-9.0.8~ubuntu24.04.1*
G04 #@! TF.CreationDate,2026-03-24T20:26:18+02:00*
G04 #@! TF.ProjectId,micro,6d696372-6f2e-46b6-9963-61645f706362,rev?*
G04 #@! TF.SameCoordinates,Original*
G04 #@! TF.FileFunction,Soldermask,Bot*
G04 #@! TF.FilePolarity,Negative*
%FSLAX46Y46*%
G04 Gerber Fmt 4.6, Leading zero omitted, Abs format (unit mm)*
G04 Created by KiCad (PCBNEW 9.0.8-9.0.8~ubuntu24.04.1) date 2026-03-24 20:26:18*
%MOMM*%
%LPD*%
G01*
G04 APERTURE LIST*
G04 Aperture macros list*
%AMRoundRect*
0 Rectangle with rounded corners*
0 $1 Rounding radius*
0 $2 $3 $4 $5 $6 $7 $8 $9 X,Y pos of 4 corners*
0 Add a 4 corners polygon primitive as box body*
4,1,4,$2,$3,$4,$5,$6,$7,$8,$9,$2,$3,0*
0 Add four circle primitives for the rounded corners*
1,1,$1+$1,$2,$3*
1,1,$1+$1,$4,$5*
1,1,$1+$1,$6,$7*
1,1,$1+$1,$8,$9*
0 Add four rect primitives between the rounded corners*
20,1,$1+$1,$2,$3,$4,$5,0*
20,1,$1+$1,$4,$5,$6,$7,0*
20,1,$1+$1,$6,$7,$8,$9,0*
20,1,$1+$1,$8,$9,$2,$3,0*%
%AMRotRect*
0 Rectangle, with rotation*
0 The origin of the aperture is its center*
0 $1 length*
0 $2 width*
0 $3 Rotation angle, in degrees counterclockwise*
0 Add horizontal line*
21,1,$1,$2,0,0,$3*%
%AMFreePoly0*
4,1,23,0.550000,-0.750000,0.000000,-0.750000,0.000000,-0.745722,-0.065263,-0.745722,-0.191342,-0.711940,-0.304381,-0.646677,-0.396677,-0.554381,-0.461940,-0.441342,-0.495722,-0.315263,-0.495722,-0.250000,-0.500000,-0.250000,-0.500000,0.250000,-0.495722,0.250000,-0.495722,0.315263,-0.461940,0.441342,-0.396677,0.554381,-0.304381,0.646677,-0.191342,0.711940,-0.065263,0.745722,0.000000,0.745722,
0.000000,0.750000,0.550000,0.750000,0.550000,-0.750000,0.550000,-0.750000,$1*%
%AMFreePoly1*
4,1,23,0.000000,0.745722,0.065263,0.745722,0.191342,0.711940,0.304381,0.646677,0.396677,0.554381,0.461940,0.441342,0.495722,0.315263,0.495722,0.250000,0.500000,0.250000,0.500000,-0.250000,0.495722,-0.250000,0.495722,-0.315263,0.461940,-0.441342,0.396677,-0.554381,0.304381,-0.646677,0.191342,-0.711940,0.065263,-0.745722,0.000000,-0.745722,0.000000,-0.750000,-0.550000,-0.750000,
-0.550000,0.750000,0.000000,0.750000,0.000000,0.745722,0.000000,0.745722,$1*%
%AMFreePoly2*
4,1,23,0.500000,-0.750000,0.000000,-0.750000,0.000000,-0.745722,-0.065263,-0.745722,-0.191342,-0.711940,-0.304381,-0.646677,-0.396677,-0.554381,-0.461940,-0.441342,-0.495722,-0.315263,-0.495722,-0.250000,-0.500000,-0.250000,-0.500000,0.250000,-0.495722,0.250000,-0.495722,0.315263,-0.461940,0.441342,-0.396677,0.554381,-0.304381,0.646677,-0.191342,0.711940,-0.065263,0.745722,0.000000,0.745722,
0.000000,0.750000,0.500000,0.750000,0.500000,-0.750000,0.500000,-0.750000,$1*%
%AMFreePoly3*
4,1,23,0.000000,0.745722,0.065263,0.745722,0.191342,0.711940,0.304381,0.646677,0.396677,0.554381,0.461940,0.441342,0.495722,0.315263,0.495722,0.250000,0.500000,0.250000,0.500000,-0.250000,0.495722,-0.250000,0.495722,-0.315263,0.461940,-0.441342,0.396677,-0.554381,0.304381,-0.646677,0.191342,-0.711940,0.065263,-0.745722,0.000000,-0.745722,0.000000,-0.750000,-0.500000,-0.750000,
-0.500000,0.750000,0.000000,0.750000,0.000000,0.745722,0.000000,0.745722,$1*%
G04 Aperture macros list end*
%ADD10C,3.500000*%
%ADD11R,1.905000X2.000000*%
%ADD12O,1.905000X2.000000*%
%ADD13C,2.000000*%
%ADD14R,2.000000X2.000000*%
%ADD15O,1.700000X1.950000*%
%ADD16RoundRect,0.250000X0.600000X0.725000X-0.600000X0.725000X-0.600000X-0.725000X0.600000X-0.725000X0*%
%ADD17C,1.200000*%
%ADD18O,1.950000X1.700000*%
%ADD19RoundRect,0.250000X0.725000X-0.600000X0.725000X0.600000X-0.725000X0.600000X-0.725000X-0.600000X0*%
%ADD20C,1.250000*%
%ADD21C,1.600000*%
%ADD22RoundRect,0.250000X-0.550000X-0.550000X0.550000X-0.550000X0.550000X0.550000X-0.550000X0.550000X0*%
%ADD23RoundRect,0.250000X-0.600000X-0.725000X0.600000X-0.725000X0.600000X0.725000X-0.600000X0.725000X0*%
%ADD24C,3.600000*%
%ADD25C,5.500000*%
%ADD26RoundRect,0.250000X-0.600000X0.600000X-0.600000X-0.600000X0.600000X-0.600000X0.600000X0.600000X0*%
%ADD27C,1.700000*%
%ADD28R,1.700000X1.700000*%
%ADD29RoundRect,0.250000X0.550000X-0.550000X0.550000X0.550000X-0.550000X0.550000X-0.550000X-0.550000X0*%
%ADD30RoundRect,0.250001X0.949999X-0.949999X0.949999X0.949999X-0.949999X0.949999X-0.949999X-0.949999X0*%
%ADD31C,2.400000*%
%ADD32C,1.728000*%
%ADD33RoundRect,0.102000X-0.762000X0.762000X-0.762000X-0.762000X0.762000X-0.762000X0.762000X0.762000X0*%
%ADD34RoundRect,0.102000X-0.965200X-0.965200X0.965200X-0.965200X0.965200X0.965200X-0.965200X0.965200X0*%
%ADD35RoundRect,0.249999X-0.850001X-0.850001X0.850001X-0.850001X0.850001X0.850001X-0.850001X0.850001X0*%
%ADD36C,2.200000*%
%ADD37O,2.000000X1.200000*%
%ADD38RoundRect,0.102000X0.754000X-0.754000X0.754000X0.754000X-0.754000X0.754000X-0.754000X-0.754000X0*%
%ADD39C,1.712000*%
%ADD40RoundRect,0.102000X-0.654000X-0.654000X0.654000X-0.654000X0.654000X0.654000X-0.654000X0.654000X0*%
%ADD41C,1.512000*%
%ADD42RoundRect,0.250000X-0.550000X0.950000X-0.550000X-0.950000X0.550000X-0.950000X0.550000X0.950000X0*%
%ADD43O,1.600000X2.400000*%
%ADD44FreePoly0,90.000000*%
%ADD45R,1.500000X1.000000*%
%ADD46FreePoly1,90.000000*%
%ADD47RoundRect,0.250000X0.625000X-0.400000X0.625000X0.400000X-0.625000X0.400000X-0.625000X-0.400000X0*%
%ADD48RoundRect,0.250000X0.650000X-0.412500X0.650000X0.412500X-0.650000X0.412500X-0.650000X-0.412500X0*%
%ADD49RotRect,3.000000X3.000000X135.000000*%
%ADD50C,3.000000*%
%ADD51RoundRect,0.250000X-0.625000X0.400000X-0.625000X-0.400000X0.625000X-0.400000X0.625000X0.400000X0*%
%ADD52FreePoly2,270.000000*%
%ADD53FreePoly3,270.000000*%
%ADD54RoundRect,0.102000X0.965200X0.965200X-0.965200X0.965200X-0.965200X-0.965200X0.965200X-0.965200X0*%
G04 APERTURE END LIST*
G04 #@! TO.C,JP2*
G36*
X143450000Y-91250000D02*
G01*
X141950000Y-91250000D01*
X141950000Y-89750000D01*
X143450000Y-89750000D01*
X143450000Y-91250000D01*
G37*
G04 #@! TO.C,JP1*
G36*
X138200000Y-91200000D02*
G01*
X136700000Y-91200000D01*
X136700000Y-89700000D01*
X138200000Y-89700000D01*
X138200000Y-91200000D01*
G37*
G04 #@! TO.C,JP4*
G36*
X136600000Y-94800000D02*
G01*
X138100000Y-94800000D01*
X138100000Y-95100000D01*
X136600000Y-95100000D01*
X136600000Y-94800000D01*
G37*
G04 #@! TO.C,JP3*
G36*
X141800000Y-94750000D02*
G01*
X143300000Y-94750000D01*
X143300000Y-95050000D01*
X141800000Y-95050000D01*
X141800000Y-94750000D01*
G37*
G04 #@! TD*
D10*
G04 #@! TO.C,Q1*
X109060000Y-65270000D03*
D11*
X106520000Y-81930000D03*
D12*
X109060000Y-81930000D03*
X111600000Y-81930000D03*
G04 #@! TD*
D13*
G04 #@! TO.C,D2*
X128740000Y-96200000D03*
D14*
X123660000Y-96200000D03*
D10*
X126200000Y-80400000D03*
G04 #@! TD*
D15*
G04 #@! TO.C,J1*
X139650000Y-51440000D03*
X142150000Y-51440000D03*
X144650000Y-51440000D03*
D16*
X147150000Y-51440000D03*
D17*
X148750000Y-49440000D03*
G04 #@! TD*
D18*
G04 #@! TO.C,J2*
X156750000Y-107420000D03*
X156750000Y-109920000D03*
X156750000Y-112420000D03*
D19*
X156750000Y-114920000D03*
D17*
X158750000Y-116520000D03*
G04 #@! TD*
D15*
G04 #@! TO.C,J3*
X137150000Y-40950000D03*
X139650000Y-40950000D03*
X142150000Y-40950000D03*
X144650000Y-40950000D03*
X147150000Y-40950000D03*
D16*
X149650000Y-40950000D03*
D20*
X151250000Y-39350000D03*
G04 #@! TD*
D18*
G04 #@! TO.C,J6*
X176900000Y-93600000D03*
X176900000Y-96100000D03*
X176900000Y-98600000D03*
D19*
X176900000Y-101100000D03*
D17*
X178900000Y-102700000D03*
G04 #@! TD*
D21*
G04 #@! TO.C,U2*
X112165000Y-91575000D03*
X112165000Y-94115000D03*
X104545000Y-94115000D03*
D22*
X104545000Y-91575000D03*
G04 #@! TD*
D23*
G04 #@! TO.C,J9*
X188300000Y-59800000D03*
D15*
X190800000Y-59800000D03*
G04 #@! TD*
D24*
G04 #@! TO.C,H3*
X185000000Y-132000000D03*
D25*
X185000000Y-132000000D03*
G04 #@! TD*
D23*
G04 #@! TO.C,J4*
X156550000Y-40850000D03*
D15*
X159050000Y-40850000D03*
X161550000Y-40850000D03*
X164050000Y-40850000D03*
X166550000Y-40850000D03*
X169050000Y-40850000D03*
X171550000Y-40850000D03*
G04 #@! TD*
D26*
G04 #@! TO.C,J7*
X157530000Y-121500000D03*
D27*
X157530000Y-124040000D03*
X154990000Y-121500000D03*
X154990000Y-124040000D03*
X152450000Y-121500000D03*
X152450000Y-124040000D03*
X149910000Y-121500000D03*
X149910000Y-124040000D03*
X147370000Y-121500000D03*
X147370000Y-124040000D03*
X144830000Y-121500000D03*
X144830000Y-124040000D03*
X142290000Y-121500000D03*
X142290000Y-124040000D03*
X139750000Y-121500000D03*
X139750000Y-124040000D03*
X137210000Y-121500000D03*
X137210000Y-124040000D03*
X134670000Y-121500000D03*
X134670000Y-124040000D03*
X132130000Y-121500000D03*
X132130000Y-124040000D03*
X129590000Y-121500000D03*
X129590000Y-124040000D03*
X127050000Y-121500000D03*
X127050000Y-124040000D03*
X124510000Y-121500000D03*
X124510000Y-124040000D03*
X121970000Y-121500000D03*
X121970000Y-124040000D03*
X119430000Y-121500000D03*
X119430000Y-124040000D03*
X116890000Y-121500000D03*
X116890000Y-124040000D03*
X114350000Y-121500000D03*
X114350000Y-124040000D03*
X111810000Y-121500000D03*
X111810000Y-124040000D03*
X109270000Y-121500000D03*
X109270000Y-124040000D03*
G04 #@! TD*
D28*
G04 #@! TO.C,J5*
X196800000Y-40600000D03*
D27*
X194260000Y-40600000D03*
X191720000Y-40600000D03*
X189180000Y-40600000D03*
X186640000Y-40600000D03*
X184100000Y-40600000D03*
X181560000Y-40600000D03*
X179020000Y-40600000D03*
G04 #@! TD*
D24*
G04 #@! TO.C,H1*
X106400000Y-41200000D03*
D25*
X106400000Y-41200000D03*
G04 #@! TD*
D29*
G04 #@! TO.C,C6*
X144800000Y-109022651D03*
D21*
X144800000Y-104022651D03*
G04 #@! TD*
D24*
G04 #@! TO.C,H4*
X197300000Y-59900000D03*
D25*
X197300000Y-59900000D03*
G04 #@! TD*
D19*
G04 #@! TO.C,J8*
X168900000Y-101050000D03*
D18*
X168900000Y-98550000D03*
X168900000Y-96050000D03*
G04 #@! TD*
D30*
G04 #@! TO.C,C2*
X121140000Y-72190000D03*
D31*
X121140000Y-67190000D03*
G04 #@! TD*
D32*
G04 #@! TO.C,U6*
X190630000Y-101670000D03*
X190630000Y-91510000D03*
X193170000Y-101670000D03*
D33*
X198250000Y-101670000D03*
D32*
X195710000Y-101670000D03*
X188090000Y-101670000D03*
X185550000Y-101670000D03*
X193170000Y-91510000D03*
D33*
X198250000Y-91510000D03*
D32*
X195710000Y-91510000D03*
X188090000Y-91510000D03*
X185550000Y-91510000D03*
G04 #@! TD*
D34*
G04 #@! TO.C,U3*
X105883250Y-102486750D03*
X105883250Y-107566750D03*
X105883250Y-105026750D03*
X105883250Y-110106750D03*
G04 #@! TD*
D35*
G04 #@! TO.C,D1*
X103600000Y-86230000D03*
D36*
X116300000Y-86230000D03*
G04 #@! TD*
D24*
G04 #@! TO.C,H2*
X106300000Y-116200000D03*
D25*
X106300000Y-116200000D03*
G04 #@! TD*
D37*
G04 #@! TO.C,P1*
X196533918Y-126310000D03*
X196533918Y-123770000D03*
X196533918Y-121230000D03*
X196533918Y-118690000D03*
X196533918Y-116150000D03*
X196533918Y-113610000D03*
X173333918Y-113610000D03*
X173333918Y-116150000D03*
X173333918Y-118690000D03*
X173333918Y-121230000D03*
X173333918Y-123770000D03*
X173333918Y-126310000D03*
X173333918Y-126310000D03*
G04 #@! TD*
D38*
G04 #@! TO.C,U5*
X132330000Y-112457500D03*
D39*
X134870000Y-112457500D03*
X137410000Y-112457500D03*
X139950000Y-112457500D03*
X142490000Y-112457500D03*
X145030000Y-112457500D03*
X147570000Y-112457500D03*
X150110000Y-112457500D03*
X132330000Y-99757500D03*
X134870000Y-99757500D03*
X137410000Y-99757500D03*
X139950000Y-99757500D03*
X142490000Y-99757500D03*
X145030000Y-99757500D03*
X147570000Y-99757500D03*
X150110000Y-99757500D03*
X150110000Y-104837500D03*
X150110000Y-102297500D03*
G04 #@! TD*
D40*
G04 #@! TO.C,U1*
X175716000Y-110880000D03*
D41*
X175716000Y-113420000D03*
X175716000Y-115960000D03*
X175716000Y-118500000D03*
X175716000Y-121040000D03*
X175716000Y-123580000D03*
X175716000Y-126120000D03*
X175716000Y-128660000D03*
X193750000Y-128660000D03*
X193750000Y-126120000D03*
X193750000Y-123580000D03*
X193750000Y-121040000D03*
X193750000Y-118500000D03*
X193750000Y-115960000D03*
X193750000Y-113420000D03*
X193750000Y-110880000D03*
G04 #@! TD*
D42*
G04 #@! TO.C,\u03BCC1*
X195790000Y-67570000D03*
D43*
X193250000Y-67570000D03*
X190710000Y-67570000D03*
X188170000Y-67570000D03*
X185630000Y-67570000D03*
X183090000Y-67570000D03*
X180550000Y-67570000D03*
X178010000Y-67570000D03*
X175470000Y-67570000D03*
X172930000Y-67570000D03*
X170390000Y-67570000D03*
X167850000Y-67570000D03*
X165310000Y-67570000D03*
X162770000Y-67570000D03*
X160230000Y-67570000D03*
X157690000Y-67570000D03*
X155150000Y-67570000D03*
X152610000Y-67570000D03*
X150070000Y-67570000D03*
X147530000Y-67570000D03*
X147530000Y-82810000D03*
X150070000Y-82810000D03*
X152610000Y-82810000D03*
X155150000Y-82810000D03*
X157690000Y-82810000D03*
X160230000Y-82810000D03*
X162770000Y-82810000D03*
X165310000Y-82810000D03*
X167850000Y-82810000D03*
X170390000Y-82810000D03*
X172930000Y-82810000D03*
X175470000Y-82810000D03*
X178010000Y-82810000D03*
X180550000Y-82810000D03*
X183090000Y-82810000D03*
X185630000Y-82810000D03*
X188170000Y-82810000D03*
X190710000Y-82810000D03*
X193250000Y-82810000D03*
X195790000Y-82810000D03*
G04 #@! TD*
D44*
G04 #@! TO.C,JP2*
X142700000Y-91800000D03*
D45*
X142700000Y-90500000D03*
D46*
X142700000Y-89200000D03*
G04 #@! TD*
D47*
G04 #@! TO.C,R17*
X119300000Y-85750000D03*
X119300000Y-82650000D03*
G04 #@! TD*
G04 #@! TO.C,R13*
X110700000Y-131450000D03*
X110700000Y-128350000D03*
G04 #@! TD*
D44*
G04 #@! TO.C,JP1*
X137450000Y-91750000D03*
D45*
X137450000Y-90450000D03*
D46*
X137450000Y-89150000D03*
G04 #@! TD*
D48*
G04 #@! TO.C,C3*
X179400000Y-110925000D03*
X179400000Y-107800000D03*
G04 #@! TD*
D47*
G04 #@! TO.C,R18*
X119250000Y-80700000D03*
X119250000Y-77600000D03*
G04 #@! TD*
D49*
G04 #@! TO.C,BATT1*
X131965390Y-59995391D03*
D50*
X117476772Y-45506773D03*
G04 #@! TD*
D51*
G04 #@! TO.C,R14*
X105900000Y-128300000D03*
X105900000Y-131400000D03*
G04 #@! TD*
D52*
G04 #@! TO.C,JP4*
X137350000Y-94300000D03*
D53*
X137350000Y-95600000D03*
G04 #@! TD*
D52*
G04 #@! TO.C,JP3*
X142550000Y-94250000D03*
D53*
X142550000Y-95550000D03*
G04 #@! TD*
D54*
G04 #@! TO.C,U4*
X123700000Y-102520000D03*
X123700000Y-107600000D03*
X123700000Y-105060000D03*
X123700000Y-110140000D03*
G04 #@! TD*
D51*
G04 #@! TO.C,R12*
X114150000Y-128300000D03*
X114150000Y-131400000D03*
G04 #@! TD*
M02*
